<?xml version="1.0" encoding="utf-8"?>
<!-- Generator: Adobe Illustrator 27.4.0, SVG Export Plug-In . SVG Version: 6.00 Build 0)  -->
<svg version="1.1" id="Layer_1" xmlns="http://www.w3.org/2000/svg" xmlns:xlink="http://www.w3.org/1999/xlink" x="0px" y="0px"
	 viewBox="0 0 151 69.1" enable-background="new 0 0 151 69.1" xml:space="preserve">
<g>
	<path fill="#FF0000" d="M47.2,21.7c-0.6-2.1-2.2-3.7-4.3-4.3c-3.8-1-18.8-1-18.8-1s-15.1,0-18.8,1C3.2,18,1.6,19.6,1,21.7
		c-1,3.8-1,11.6-1,11.6s0,7.8,1,11.6c0.6,2.1,2.2,3.7,4.3,4.3c3.8,1,18.8,1,18.8,1s15.1,0,18.8-1c2.1-0.6,3.7-2.2,4.3-4.3
		c1-3.8,1-11.6,1-11.6S48.2,25.4,47.2,21.7z"/>
	<polygon fill="#FFFFFF" points="19.3,40.5 31.8,33.3 19.3,26.1 	"/>
</g>
<g>
	<g>
		<path fill="#282828" d="M69.9,47.1c-1-0.6-1.6-1.6-2-3s-0.6-3.2-0.6-5.4v-3.1c0-2.3,0.2-4.1,0.7-5.5s1.2-2.4,2.2-3
			s2.3-0.9,3.8-0.9c1.6,0,2.8,0.3,3.8,1c0.9,0.6,1.6,1.6,2.1,3c0.4,1.4,0.7,3.2,0.7,5.5v3.1c0,2.2-0.2,4.1-0.6,5.4
			c-0.4,1.4-1.1,2.4-2.1,3s-2.2,0.9-3.9,0.9C72.2,48,70.8,47.7,69.9,47.1z M75.2,43.8c0.3-0.7,0.4-1.8,0.4-3.4v-6.6
			c0-1.5-0.1-2.6-0.4-3.3c-0.3-0.7-0.7-1-1.4-1c-0.6,0-1.1,0.4-1.4,1c-0.3,0.7-0.4,1.8-0.4,3.3v6.6c0,1.6,0.1,2.7,0.4,3.4
			s0.7,1,1.4,1S75,44.5,75.2,43.8z"/>
		<path fill="#282828" d="M143,38.7v1.1c0,1.4,0,2.4,0.1,3c0.1,0.7,0.2,1.2,0.5,1.5s0.6,0.5,1.2,0.5c0.7,0,1.2-0.3,1.5-0.8
			c0.3-0.6,0.4-1.5,0.4-2.8l4.1,0.2c0,0.2,0,0.4,0,0.8c0,2-0.5,3.4-1.6,4.4s-2.6,1.4-4.5,1.4c-2.3,0-4-0.7-4.9-2.2s-1.4-3.7-1.4-6.8
			v-3.7c0-3.2,0.5-5.5,1.5-6.9c1-1.5,2.6-2.2,5-2.2c1.6,0,2.9,0.3,3.8,0.9c0.9,0.6,1.5,1.5,1.8,2.8c0.4,1.3,0.5,3,0.5,5.2v3.6
			C151,38.7,143,38.7,143,38.7z M143.6,29.8c-0.2,0.3-0.4,0.8-0.5,1.5S143,33,143,34.4v1.5h3.5v-1.5c0-1.4,0-2.4-0.1-3.1
			s-0.3-1.2-0.5-1.5s-0.6-0.4-1.1-0.4C144.2,29.4,143.9,29.5,143.6,29.8z"/>
		<path fill="#282828" d="M58.3,38.3l-5.4-19.5h4.7l1.9,8.8c0.5,2.2,0.8,4,1.1,5.6h0.1c0.2-1.1,0.5-2.9,1.1-5.5l2-8.9h4.7L63,38.3
			v9.4h-4.7V38.3z"/>
		<path fill="#282828" d="M95.8,26.6v21.1h-3.7l-0.4-2.6h-0.1c-1,2-2.5,2.9-4.5,2.9c-1.4,0-2.4-0.5-3.1-1.4s-1-2.4-1-4.3V26.6h4.8
			v15.5c0,0.9,0.1,1.6,0.3,2c0.2,0.4,0.6,0.6,1,0.6s0.8-0.1,1.2-0.4c0.4-0.3,0.7-0.6,0.8-1V26.6H95.8z"/>
		<path fill="#282828" d="M120.1,26.6v21.1h-3.7l-0.4-2.6h-0.1c-1,2-2.5,2.9-4.5,2.9c-1.4,0-2.4-0.5-3.1-1.4s-1-2.4-1-4.3V26.6h4.8
			v15.5c0,0.9,0.1,1.6,0.3,2s0.6,0.6,1,0.6s0.8-0.1,1.2-0.4c0.4-0.3,0.7-0.6,0.8-1V26.6H120.1z"/>
		<path fill="#282828" d="M108.7,22.6H104v25.1h-4.6V22.6h-4.7v-3.8h14V22.6z"/>
		<path fill="#282828" d="M135.8,30c-0.3-1.3-0.8-2.3-1.4-2.9c-0.6-0.6-1.5-0.9-2.7-0.9c-0.9,0-1.7,0.2-2.4,0.7
			c-0.8,0.5-1.3,1.1-1.8,1.9l0,0V17.7h-4.6v29.9h3.9l0.5-2h0.1c0.4,0.7,0.9,1.3,1.7,1.7c0.7,0.4,1.5,0.6,2.4,0.6
			c1.6,0,2.8-0.7,3.5-2.2c0.8-1.5,1.1-3.8,1.1-6.9v-3.3C136.3,33.1,136.1,31.3,135.8,30z M131.5,38.6c0,1.5-0.1,2.7-0.2,3.6
			c-0.1,0.9-0.3,1.5-0.6,1.9s-0.7,0.6-1.2,0.6c-0.4,0-0.8-0.1-1.1-0.3s-0.6-0.5-0.8-0.8v-12c0.2-0.6,0.4-1,0.8-1.4
			c0.4-0.4,0.8-0.6,1.3-0.6s0.9,0.2,1.1,0.6c0.3,0.4,0.4,1,0.6,1.9c0.1,0.9,0.2,2.2,0.2,3.8v2.7H131.5z"/>
	</g>
</g>
</svg>
