<?xml version="1.0" encoding="utf-8"?>
<!-- Generator: Adobe Illustrator 27.3.1, SVG Export Plug-In . SVG Version: 6.00 Build 0)  -->
<svg version="1.1" id="Layer_1" xmlns="http://www.w3.org/2000/svg" xmlns:xlink="http://www.w3.org/1999/xlink" x="0px" y="0px"
	 viewBox="0 0 191 156" enable-background="new 0 0 191 156" xml:space="preserve">
<g>
	<g>
		<path fill="#EE3123" d="M153.5,48.8c-1.4-5.2-5.5-9.3-10.7-10.7c-9.5-2.5-47.5-2.5-47.5-2.5s-38,0-47.5,2.5
			c-5.2,1.4-9.3,5.5-10.7,10.7c-2.5,9.5-2.5,29.2-2.5,29.2s0,19.8,2.5,29.2c1.4,5.2,5.5,9.3,10.7,10.7c9.5,2.5,47.5,2.5,47.5,2.5
			s38,0,47.5-2.5c5.2-1.4,9.3-5.5,10.7-10.7c2.5-9.5,2.5-29.2,2.5-29.2S156,58.3,153.5,48.8z"/>
		<polygon fill="#FFFFFF" points="83.1,96.3 114.7,78.1 83.1,59.9 		"/>
	</g>
</g>
</svg>
