<?xml version="1.0" encoding="utf-8"?>
<!-- Generator: Adobe Illustrator 27.4.0, SVG Export Plug-In . SVG Version: 6.00 Build 0)  -->
<svg version="1.1" id="Logo" xmlns="http://www.w3.org/2000/svg" xmlns:xlink="http://www.w3.org/1999/xlink" x="0px" y="0px"
	 viewBox="0 0 248 204" enable-background="new 0 0 248 204" xml:space="preserve">
<g id="Logo_1_">
	<path id="white_background" fill="#FFFFFF" d="M208.3,58.3c0.1,1.9,0.1,3.7,0.1,5.6c0,57.4-43.7,123.7-123.7,123.7v0
		c-23.6,0-46.7-6.7-66.6-19.5c3.4,0.4,6.9,0.6,10.3,0.6c19.6,0,38.6-6.5,54-18.6c-18.6-0.4-34.9-12.5-40.6-30.2
		c6.5,1.3,13.2,1,19.6-0.7C41.2,115,26.6,97.2,26.6,76.5c0-0.2,0-0.4,0-0.6c6,3.4,12.8,5.2,19.7,5.4c-19.1-12.8-25-38.2-13.5-58
		C55,50.5,87.5,67,122.5,68.8c-3.5-15.1,1.3-30.9,12.6-41.5c17.5-16.5,45-15.6,61.5,1.9c9.7-1.9,19.1-5.5,27.6-10.6
		c-3.2,10.1-10,18.6-19.1,24c8.6-1,17-3.3,25-6.8C224.2,44.5,216.8,52.1,208.3,58.3z"/>
</g>
</svg>
