<?xml version="1.0" encoding="utf-8"?>
<!-- Generator: Adobe Illustrator 27.4.0, SVG Export Plug-In . SVG Version: 6.00 Build 0)  -->
<svg version="1.1" id="レイヤー_1" xmlns="http://www.w3.org/2000/svg" xmlns:xlink="http://www.w3.org/1999/xlink" x="0px"
	 y="0px" viewBox="0 0 1796.3 2500" enable-background="new 0 0 1796.3 2500" xml:space="preserve">
<g>
	<path fill="#00F2EA" d="M832.8,1051.4v-68.3c-25.3-3.4-50.9-5.1-76.4-5.2c-312.7,0-567.1,238.1-567.1,530.8
		c0,179.5,95.9,338.5,242.1,434.5c-97.9-98-152.4-227.2-152.3-361.3C279.1,1293.4,526.3,1058.1,832.8,1051.4"/>
	<path fill="#00F2EA" d="M847.9,1805.3c132.2,0,240-104.5,244.9-234.8l0.5-1162.6H1307c-4.6-24.3-6.9-48.9-6.9-73.6h-291.9
		l-0.5,1162.6c-4.9,130.2-112.8,234.7-244.9,234.7c-39.6,0-78.7-9.6-113.8-28C695.1,1767.5,769.1,1805.3,847.9,1805.3 M1706.1,802.6
		V738c-78.5,0.1-155.3-22.6-221.1-65.3C1542.8,738.7,1620.4,784.3,1706.1,802.6"/>
	<path fill="#FF004F" d="M1476.4,689.2c-64.2-72.5-99.6-166-99.7-262.8h-78C1319.3,534.6,1383.6,629.7,1476.4,689.2 M755.8,1256.7
		c-135.1,0.2-244.6,108.5-244.8,242.2c0.3,90.4,50.9,173,131.2,214.4c-30.1-41-46.3-90.4-46.3-141.3
		c0.1-133.8,109.6-242.2,244.8-242.3c25.3,0,49.4,4.1,72.3,11.2v-294.2c-23.9-3.4-48.1-5.1-72.3-5.2c-4.2,0-8.4,0.3-12.6,0.3v226
		C804.7,1260.6,780.3,1256.8,755.8,1256.7"/>
	<path fill="#FF004F" d="M1667.3,840v224.5c-145.2,0.2-286.8-45-405.1-129.2v586.9c0,293.1-240.4,531.6-535.9,531.6
		c-114.2,0-220.1-35.8-307.1-96.4c101.5,108.4,243.5,169.8,392,169.7c295.5,0,535.9-238.5,535.9-531.6v-586.9
		c118.3,84.2,259.9,129.4,405.1,129.2V849C1723.6,849,1695.2,846,1667.3,840"/>
	<path d="M1291.5,1502.9V915c121.7,84.6,266.4,129.8,414.7,129.4V819.7c-87.2-18-166.3-63.5-225.8-129.6
		c-95.2-60.1-161-155.4-181.8-263.8h-218.2l-0.5,1159.1c-5.1,129.8-115.1,234-250.1,234c-80.6-0.1-156.2-37.8-203.2-101.3
		c-82.5-42-134.2-124.8-134.2-215.2c0.1-134.2,112.2-242.9,250.5-243.1c25.7,0,50.5,4.1,73.9,11.3v-226.8
		c-296.5,6.8-535.7,242.7-535.7,532c0,140,56,267.3,147.3,362.4c92.7,63.1,202.3,96.7,314.4,96.5
		C1045.4,2035.2,1291.5,1796.4,1291.5,1502.9"/>
</g>
</svg>
