<?xml version="1.0" encoding="utf-8"?>
<!-- Generator: Adobe Illustrator 27.4.0, SVG Export Plug-In . SVG Version: 6.00 Build 0)  -->
<svg version="1.1" id="レイヤー_1" xmlns="http://www.w3.org/2000/svg" xmlns:xlink="http://www.w3.org/1999/xlink" x="0px"
	 y="0px" viewBox="0 0 130.2 157.1" enable-background="new 0 0 130.2 157.1" xml:space="preserve">
<g id="wSg3xi.tif">
	<g>
		<path fill="#FFFEFE" d="M105.9,69.4c0.2,0,0.4,0.1,0.4-0.2c0.1-0.1,0.1-0.2,0.2-0.3c-0.1-0.1-0.1-0.2-0.2-0.2c-0.9,0-1.8,0-2.7,0
			c-0.1,0-0.1,0.1-0.2,0.2c0.1,0.5,0.8,0.2,0.9,0.8c0.1,0.4,0.4,0.8,0.6,1.1c0.2,0.4,0.5,0.8,0.6,1.3c0.2,0.6,0.6,1.2,0.7,1.9
			c0,0.1,0,0.2-0.1,0.2c-1,0-2,0-3,0c-0.1,0-0.2-0.2-0.2-0.3c-0.1-0.3,0.2-0.7-0.2-0.8c-0.2-0.3-0.3-0.6-0.5-0.8
			c-0.5-0.4-1-0.8-1.6-1c-0.2-0.1-0.9-0.6-1.2-0.9c0-0.3,0-0.6,0-0.9c0-0.1,0-0.1,0.1-0.2c0.7-0.7,1.1-0.7,1.8-0.1
			c0.4,0.4,0.7,0.9,1,1.3c0.1,0,0.2-0.1,0.2-0.1c0-0.6,0-1.2,0-1.8c0,0-0.1-0.1-0.2-0.1c0,0-0.1,0-0.1,0c-0.3,0.4-0.3,0.4-0.8,0.2
			c-0.1-0.1-0.3-0.1-0.4-0.2c-0.4-0.3-0.9-0.3-1.3,0c-0.1,0.1-0.2,0.1-0.3,0.2c-1.1,0.9-1.2,2.1,0.2,3.1c0.6,0.4,1.2,0.8,1.8,1.1
			c0.2,0.1,0.4,0.2,0.5,0.5c0,0.2,0.1,0.4-0.3,0.4c-0.9,0-1.7,0-2.6,0c0-0.2,0.1-0.4-0.2-0.4c-0.4-0.1-0.3,0.2-0.3,0.4
			c-0.3-0.1-0.7-0.2-1-0.2c-0.4,0-0.8,0-1.2,0c0-1.6,0-3.1,0-4.7c0-0.3-0.1-0.4-0.4-0.4c-0.7,0-1.3,0.3-2,0.3c0,0-0.1,0.1-0.1,0.2
			c0,0.1,0.1,0.2,0.1,0.2c0.4,0,0.8-0.1,1,0.5c0,1,0,2.1,0,3.1c0,0.6,0,0.6-0.5,0.6c-0.2,0-0.4,0.1-0.6,0.1c-0.5,0.1-1,0.2-1.5,0.3
			c-0.4-0.1-0.1-0.4-0.2-0.7c0.1-0.3,0.1-0.6,0.2-0.8c0.8-1,0.8-2,0.1-3c-0.2-0.3,0-0.4,0.2-0.5c0.1-0.1,0.2-0.1,0.3-0.1
			c0.2-0.1,0.3-0.1,0.5-0.2c0.2-0.1,0.5-0.1,0.5-0.2c0.1-0.2,0.1-0.4,0-0.6c-0.3-0.6-0.5-1.2-0.9-1.8c-0.5-0.8-1.1-1.4-1.7-2.1
			c-0.3-0.3-0.7-0.6-1.1-0.5c-0.4,0.1-0.9,0-1.1,0.3c-0.3,0.3-0.7,0.2-0.9,0.6c-0.2,0-0.3,0.1-0.5,0.1c-0.1,0-0.3,0-0.4,0.1
			c-0.6,0.4-1.2,0.5-1.9,0.2c-0.4-0.2-0.8-0.4-1.2-0.6c-0.1,0-0.2-0.1-0.2-0.2c0.1-0.7-0.3-1.3-0.6-1.9c-0.1-0.2-0.1-0.5,0.1-0.7
			c0.2-0.1,0.3-0.3,0.5-0.4c1.1-0.6,2.3-1.2,3.9-1.3c0.1,0,0.2-0.1,0.4-0.2c0.9,0,1.8-0.2,2.7,0.1c0.9,0.3,1.8,0.6,2.8,0.5
			c0.2,0,0.3,0.1,0.5,0.1c0.5,0,1.1,0.1,1.6,0.1c0.6-0.1,0.8-0.6,0.3-1c-0.5-0.4-1-0.8-1.5-1.2c-0.2-0.1-0.4-0.2-0.5-0.3
			c0,0,0.6-0.5,0.8-0.5c0.2,0,0.4,0,0.6,0c1.2,0,2.5-0.1,3.7,0c0.8,0,1.4-0.4,2.1-0.5c0.3,0,0.4-0.5,0.1-0.7
			c-0.2-0.2-0.5-0.3-0.7-0.5c-0.2-0.2-0.4-0.5-0.6-0.8c-0.1-0.1-0.3-0.3-0.4-0.2c-0.5,0.1-1-0.2-1.5-0.2c-0.6-0.1-1.2,0-1.9,0
			c-0.6,0-1.2,0-1.8,0c-0.6,0-1.2-0.2-1.8-0.2c-0.7,0-1.4,0-2.1,0c-0.7,0-1.3,0.1-2-0.2c-0.5-0.2-1.2-0.2-1.6,0
			c-0.4,0.2-0.8,0.1-1.3,0.2c-0.4,0.1-0.8,0.3-1.2,0.2c-0.7-0.1-1.3,0.2-1.8,0.7c-0.4,0.4-0.9,0.7-1.3,1c-0.4,0.3-0.9,0.2-1.3,0.4
			c-0.4,0.2-1.1,0.2-1.5,0c-0.3-0.2-0.6-0.7-0.7-1.1c-0.2-1.1-1-1.4-1.9-1.5c-0.4,0-0.6-0.1-0.8-0.4c-0.2-0.3-0.4-0.6-0.6-1
			c-0.5-1-1-2-1.8-2.8c-0.3-0.3-0.4-0.7-0.4-1.1c0-0.8,0-1.7,0-2.5c0-0.4-0.1-0.9-0.3-1.2c-0.5-0.9-1.2-1.7-2-2.2
			c-0.8-0.6-1.4-1.2-1.4-2.2c0-0.3-0.2-0.5-0.6-0.5c-0.4,0-0.8,0-1.2,0c-0.5,0.1-0.8-0.2-1.1-0.6c-0.2-0.2-0.3-0.5-0.4-0.8
			c-0.2-0.4,0-1.1,0.4-1.3c0.3-0.2,0.6-0.2,1,0c0.3,0.2,0.7,0.3,1,0.4c0.3,0.1,0.6,0,0.6-0.3c0-0.5,0.1-0.9-0.2-1.3
			c-0.3-0.4-0.4-0.9-0.6-1.3c-0.2-0.4-0.3-0.9,0-1.1c0.6-0.5,0.7-1.3,1.1-1.9c0.2-0.3,0.4-0.6,0.5-1c0.2-0.4,0.4-0.7,0.8-0.9
			c0.1-0.1,0.1-0.3,0.2-0.4c0.3-0.5,0.2-1,0.2-1.5c0.1-0.4,0.3-0.8,0.4-1.1c0.1-0.4,0.1-0.9,0-1.3c-0.1-0.5,0.3-0.8,0.2-1.2
			c-0.1-0.9-0.1-1.8-0.2-2.7c0-0.1-1.3-3.6-1.3-3.6c-1-1.6-2.3-3-3.8-4c-1.7-1.1-3.6-1.6-5.6-1.8c-0.5-0.1-1.1,0-1.7,0
			c-1.7-0.1-3.3,0.5-4.8,1.2c-1.2,0.6-2.3,1.6-3.2,2.6c-0.6,0.6-1,1.2-1.4,2c-0.3,0.7-0.7,1.5-1,2.2c-0.5,1.3-0.9,2.6-0.9,4
			c0,0.5,0,1.1,0,1.7c0,0.6,0.3,1.2,0.4,1.8c0.2,1.1,0.8,1.9,1.3,2.8c0.4,0.9,0.7,1.8,1.5,2.5c0.3,0.2,0.1,0.5-0.1,0.7
			c-0.3,0.4-0.7,0.7-0.7,1.1c0,0.8-0.1,1.7,0.3,2.5c0.1,0.2,0.1,0.5,0.1,0.7c0,0.3,0,0.4-0.3,0.4c-0.5,0-1,0-1.5,0.2
			c-0.2,0.1-0.5,0-0.8-0.2c-0.4-0.4-0.7-0.3-0.9,0.2c-0.7,1.2-0.9,1.4-2.1,2.3c-0.4,0.3-0.8,0.6-0.8,1.2c0,0.4-0.3,0.7-0.4,1.1
			c-0.3,0.9-0.9,1.8-1,2.8c-0.4,0.3-0.1,0.9-0.4,1.3c-0.3,0.5-0.6,1-0.8,1.5c-0.3,0.6-0.7,0.9-1.4,0.9c-1.1,0-2.2-0.3-3.3-0.3
			c-0.9,0-1.4,0.3-1.8,1.1c-0.5,1-0.7,2.1-1.3,3.1c-0.3,0.5-0.4,1-0.7,1.5c-0.2,0.4-0.2,0.7-0.1,1.1c0.3,0,0.7,0,1,0
			c0.4-0.1,0.9-0.1,1.3-0.4c0.6-0.5,1,0.1,1.5,0.1c0.3,0,0.3,0.5,0.4,0.8c0.2,0.3,0.1,0.6,0.1,0.8c0,0.2,0.1,0.5,0.2,0.7
			c0.4,0.8,0.4,1.7,0,2.4c-0.6,1.2-1,2.4-1.3,3.7c-0.2,0.8-0.4,1.6-0.6,2.4c-0.2,0.8-0.7,1.5-1,2.2c-0.2,0.5-0.6,0.9-0.8,1.3
			c0,0.1-0.1,0.1-0.2,0.2c-0.1,0-0.3,0.1-0.4,0.1c-0.1-1.1-0.3-1.3-1.3-1.5c-0.1-0.1-0.2-0.2-0.3-0.2c-0.2,0-0.4,0-0.6,0
			c-0.5,0-1,0-1.5,0c-0.3,0-0.6,0-0.9,0c-0.2,0-0.5-0.1-0.4,0.3c0,0.3,0.3,0.1,0.4,0.2c0.1,0,0.1,0,0.2,0c0.1,0.1,0.1,0.1,0.2,0.2
			c0,0.8,0,1.7,0,2.5c0,0.6-0.1,0.9-0.7,1c-0.4,0.1-0.9,0.2-1.3,0.7c-0.3,0.4-0.4,0.9,0.1,1.2c0.3,0.3,0.7,0.5,1,0.7
			c0.2,0,0.4,0,0.7,0c0.1,0.1,0.1,0.2,0.2,0.2c0.5,0.2,1,0.4,1.3,0.7c0.3,0.3,0.4,0.8,0,1.1c-0.1,0.1-0.3,0.2-0.4,0.3
			c-0.6,0.5-0.6,1,0,1.4c0.2,0.1,0.4,0.3,0.6,0.3c0.4,0.1,0.5,0.4,0.5,0.7c-0.1,0.4,0.1,0.7,0.4,0.9c0.2,0.1,0.3,0.3,0.5,0.5
			c0.8,0.7,0.9,1.1,0.3,1.9c-0.4,0.5-0.8,1.1-1.2,1.6c-0.7,0.9-1.4,1.9-2,2.8c-0.9,1.3-1.6,2.8-3,3.7c-0.7,0.5-1,1.4-1.5,2.1
			c-0.5,0.9-1,1.9-1.6,2.7c-0.6,0.9-1.2,1.8-2.1,2.6c-0.4,0.4-0.7,0.9-0.6,1.5c0.1,0.3-0.1,0.5-0.2,0.8c-0.4,0.8-0.9,1.6-1.3,2.3
			c-0.3,0.6-0.3,1.1,0.2,1.5c0.8,0.6,1.7,1.1,2.5,1.7c0.6,0.4,1.3,0.9,1.9,1.4c0.4,0.4,0.4,0.5,0.2,1.1c0,0.1,0,0.2-0.1,0.3
			c-0.3,0.4-0.3,0.8,0.1,1.1c0.1,0.1,0.1,0.3,0.2,0.5c0.1,0.5-0.1,1-0.3,1.5c-0.2,0.6-0.2,1.1,0.3,1.5c0.5,0.5,1.2,0.6,1.8,0.9
			c0.4,0.2,0.8,0.4,1.2,0.4c0.9,0.1,1.8,0.2,2.8,0.2c0.9,0,1.8,0,2.6,0c0.9,0,1.7,0.1,2.5,0.5c0.4,0.2,0.8,0.4,1.3,0.4
			c0.2,0,0.3,0.1,0.5,0.1c0.5,0.2,1.1-0.1,1.5,0.3c0.4-0.1,0.8-0.3,1.1-0.4c0.4-0.2,0.8-0.5,1.3-0.4c0.5,0.1,1-0.1,1.5,0.2
			c0.4,0.2,0.9,0.2,1.3,0.2c1.2,0.1,2.3-0.3,3.4-0.9c0.5-0.3,1-0.6,1.1-1.2c0.1-0.5,0.1-0.5,0.6-0.5c0.5,0,0.8,0.2,1.1,0.5
			c0.5,0.5,1.1,0.8,1.8,1c1.1,0.4,1.3,0.6,1.3,1.7c0.1,1.7-0.1,3.4,0.2,5.1c0.2,1.3,0,2.7,0.2,4.1c0.1,0.7,0,1.5,0.2,2.2
			c0.2,0.6,0,1.2,0,1.9c0,0.6,0.2,1.2,0.2,1.8c0,1.1,0,2.3,0,3.4c0,0.6-0.2,1.1-0.4,1.7c-0.2,0.8-0.7,1.5-0.9,2.3
			c-0.3,0.8-0.7,1.4-1.3,2c-0.4,0.3-0.8,0.6-1,1.1c-0.1,0.3-0.4,0.4-0.8,0.2c-0.6-0.3-1.3-0.3-1.7,0.4c-0.2,0.2-0.3,0.5-0.5,0.7
			c-0.6,0.6-1.1,1.4-1.9,1.6c-0.5,0.1-0.8,0.4-1,0.7c-0.5,0.6-0.5,1.2,0,1.8c0.6,0.7,1.4,1,2.3,1.1c1.8,0,3.6,0,5.4,0
			c0.7,0,1.3-0.2,1.8-0.6c1.6-1.1,3.3-2,5-2.9c0.2-0.1,0.4-0.2,0.7-0.2c0.1,0,0.3,0.1,0.3,0.2c0.1,0.7,0.2,1.5,0.2,2.2
			c0,0.5,0.2,0.6,0.6,0.7c0.7,0.1,1.3-0.2,2-0.2c0.1,0,0.3-0.2,0.4-0.3c0.1-0.2,0.2-0.4,0.3-0.6c0.2-0.3,0.2-0.5,0.8-0.3
			c0.6,0.2,1.3,0.4,2,0.3c1.1-0.1,2.3-0.1,3.4,0c0.9,0.1,1.5-0.4,2-1c0.6-1,1.2-2.1,1.8-3.1c0.4-0.8,0.9-1.4,1.5-2
			c0.3-0.3,0.5-0.3,0.7,0.1c0.3,0.5,0.6,1,1,1.5c0.3,0.4,0.6,0.6,0.9,0.5c0.7-0.3,1.4-0.7,2-1.1c0.5-0.3,0.5-0.6,0.3-1.1
			c-0.2-0.4-0.4-0.7-0.6-1.1c-0.5-1-1.2-1.8-1.6-2.9c-0.4-1.1-1.2-2.1-2.5-2.3c-0.6-0.1-1.1-0.4-1.6-0.7c-1.2-0.9-2-2.1-2.7-3.5
			c-0.1-0.3-0.2-0.6-0.2-0.9c0-1-0.5-1.8-0.4-2.8c-0.5-1.4-0.5-2.9-0.9-4.3c-0.2-0.6,0-1.4-0.3-2c-0.3-0.6-0.1-1.3-0.4-1.9
			c-0.3-0.7-0.3-1.6-0.6-2.3c-0.3-0.7-0.3-1.4-0.3-2.1c0-0.4,0.1-0.4,0.4-0.4c0.3,0,0.6,0,0.9,0c0.5,0,0.9,0.2,1.1,0.6
			c0.1,0.3,0.4,0.3,0.6,0.5c0.7,0.4,1.3,0.1,1.8-0.1c0.9-0.4,1.9-0.6,2.9-0.5c0.2,0,0.4,0,0.7,0c0.6-0.1,1.2-0.2,1.8-0.5
			c0.4-0.3,0.9-0.6,1.2-1c0.3-0.3,0.7-0.5,1-0.7c1.3-0.5,1.7-0.2,2.2,0.7c0.1,0.1,0.2,0.2,0.2,0.4c0.5,1,1.1,1.2,2.1,0.7
			c0.4-0.2,0.7-0.5,1.1-0.6c0.9-0.3,1.8-0.9,2.8-0.7c0.3,0.1,0.5-0.1,0.6-0.3c0.6-0.6,1.3-1.2,1.9-1.9c0.3-0.3,0.5-0.3,0.8-0.1
			c0.1,0.1,0.3,0.2,0.5,0.2c0.8,0.4,1,0.4,1.6-0.2c0.3-0.3,0.7-0.4,1.1-0.4c0.7,0.1,1.2-0.2,1.6-0.6c0.2-0.2,0.4-0.5,0.6-0.7
			c0.2-0.3,0.4-0.3,0.6-0.1c0.3,0.3,0.7,0.7,1,1c0.4,0.4,0.8,0.6,1.4,0.6c1-0.1,2-0.4,2.7-1.1c0.6-0.6,1.2-1.3,1.8-2
			c0.4-0.5,0.7-1,0.5-1.7c-0.1-0.4,0-0.8,0-1.2c0-0.1,0.1-0.4,0.1-0.4c0.2,0,0.4,0,0.5,0.1c0.4,0.5,0.9,0.6,1.5,0.6
			c0.6-0.1,1-0.4,0.7-0.9c-0.4-0.6-0.4-1.4-0.9-1.9c-0.7-0.8-0.7-1.8-0.5-2.9c0.2-0.7,0.2-1.4-0.1-2.1c-0.2-0.4-0.6-0.5-0.7-0.9
			c-0.1-0.4,0.1-0.8-0.2-1.3c-0.2-0.4,0.1-0.9-0.1-1.3c-0.4-1-0.1-2-0.2-3c0-0.3,0.2-0.7,0.6-0.8c0.4-0.2,0.7-0.1,1.1,0.2
			c0.4,0.3,0.7,0.7,1.2,0.9c0.6,0.3,1.2,0.7,1.8,0.7c0.9,0.1,1.6,0.4,2.3,0.8c0.7,0.4,1.3,0.5,1.9,0c0.1-0.1,0.2-0.1,0.4-0.2
			c1.1-0.5,1.7-1.5,2-2.7c0.1-0.3,0.1-0.5,0.4-0.7c0.2-0.2,0.5-0.4,0.8-0.5c1.1-0.6,2.2-1,3.1-1.9c0.1-0.1,0.3-0.1,0.5-0.1
			c0.3,0,0.6-0.1,0.6-0.4c0-0.1-0.3-0.3-0.5-0.4c-0.1-0.1-0.2,0-0.3,0c-0.6-0.1-1.2-0.2-1.8-0.5c-0.6-0.3-1.3-0.5-1.7-1.3
			c-0.1-0.3-0.1-0.4,0.1-0.5c0.3-0.2,0.6-0.5,0.9-0.7c0.3-0.2,0.6-0.4,0.8-0.6c0.3-0.2,0.6-0.4,0.8-0.7c0.4-0.4,1.1-0.6,1.3-1.3
			c0.2-0.7,0.3-2.1-0.1-2.8c-0.5-1-0.7-1.7-1.6-2c0-0.2,0.1-0.4-0.2-0.4c-0.1,0-0.3,0-0.4,0c-0.7,0-0.7,0-0.7-0.6c0-1.1,0-2.1,0-3.2
			c0-0.2,0.1-0.4-0.2-0.4c0-0.2,0.1-0.4,0-0.5c-0.4-0.5-0.8-1-1.5-1c0-0.1-0.1-0.2-0.1-0.2c-0.6,0-1.2,0-1.8,0c0,0-0.1,0.1-0.1,0.2
			c-0.3,0-0.6-0.1-0.8,0.2c-0.2,0.3-0.5,0.6-0.8,0.9c-0.3,0.2-0.3,0.4,0,0.7c0.2,0.3,0.4,0.3,0.7,0c0.4-0.1,0.5-0.4,0.4-0.7
			c0-0.3,0.1-0.5,0.4-0.6c0.2-0.1,0.6,0.2,0.7-0.2c0.2,0,0.4,0,0.5,0c0.5,0.1,1,0.3,1.2,0.9c0.1,0.4,0.1,0.9,0,1.2
			c-0.1,0.2-0.6,0.3-0.9,0.5c-0.1,0-0.1,0.1-0.2,0.1c-0.9,0.2-1.6,0.7-2.4,1.2c-0.5,0.3-0.9,0.8-0.9,1.5c-1.1,0-2.2,0-3.3,0
			c0-0.1,0-0.1,0-0.2c0.1-0.1,0.1-0.1,0.2-0.2c0.1-0.2,0.1-0.5,0.2-0.7c0.4-1,0.7-2,1.3-3c0.3-0.4,0.4-0.8,1-0.8
			c0.3,0,0.1-0.3,0.2-0.4c0-0.1-0.1-0.2-0.1-0.2c-0.8,0-1.5,0-2.3,0c0,0-0.1,0.1-0.1,0.2c0.1,0.1,0.1,0.2,0.2,0.2
			c0.7,0.2,0.9,0.4,0.7,1c-0.1,0.4-0.4,0.8-0.5,1.2c-0.3,0.6-0.6,1.2-0.7,1.8c-0.1,0.3-0.1,0.8-0.5,0.8c-0.2,0-0.4-0.5-0.6-0.7
			c0,0,0-0.1,0-0.1c-0.3-1.1-1-2-1.3-3.1C105.9,69.8,105.9,69.6,105.9,69.4z M95.4,65.9c0.3,0.3,0.6,0.3,0.9,0
			c0.1-0.1,0.1-0.1,0.2-0.2c0.3-0.3,0.3-0.6,0-0.9c-0.5-0.6-0.8-0.6-1.3-0.2C94.8,65,94.8,65.4,95.4,65.9z"/>
		<path fill="#EDA9B1" d="M118.7,74.9c0.9,0.3,1.1,1,1.6,2c0.3,0.7,0.3,2.1,0.1,2.8c-0.2,0.7-0.9,0.9-1.3,1.3
			c-0.2,0.2-0.5,0.4-0.8,0.7c-0.3,0.2-0.6,0.4-0.8,0.6c-0.3,0.2-0.6,0.5-0.9,0.7c-0.2,0.1-0.2,0.3-0.1,0.5c0.3,0.8,1,1,1.7,1.3
			c0.5,0.3,1.2,0.3,1.8,0.5c0.1,0,0.2,0,0.3,0c0.2,0.1,0.5,0.3,0.5,0.4c0,0.3-0.3,0.5-0.6,0.4c-0.2,0-0.4,0-0.5,0.1
			c-0.8,0.9-2,1.4-3.1,1.9c-0.3,0.1-0.5,0.3-0.8,0.5c-0.2,0.2-0.3,0.4-0.4,0.7c-0.3,1.1-0.8,2.2-2,2.7c-0.1,0.1-0.3,0.1-0.4,0.2
			c-0.6,0.5-1.2,0.4-1.9,0c-0.7-0.4-1.5-0.7-2.3-0.8c-0.6-0.1-1.2-0.4-1.8-0.7c-0.4-0.2-0.8-0.6-1.2-0.9c-0.3-0.3-0.7-0.3-1.1-0.2
			c-0.4,0.1-0.7,0.5-0.6,0.8c0,1-0.2,2,0.2,3c0.2,0.4-0.1,0.9,0.1,1.3c0.2,0.4,0,0.9,0.2,1.3c0.1,0.4,0.5,0.5,0.7,0.9
			c0.3,0.7,0.2,1.4,0.1,2.1c-0.3,1-0.2,2.1,0.5,2.9c0.5,0.6,0.6,1.3,0.9,1.9c0.3,0.5-0.1,0.9-0.7,0.9c-0.6,0.1-1.1,0-1.5-0.6
			c-0.1-0.1-0.3-0.1-0.5-0.1c-0.1,0-0.1,0.2-0.1,0.4c0,0.4-0.1,0.8,0,1.2c0.1,0.7-0.2,1.2-0.5,1.7c-0.6,0.7-1.2,1.4-1.8,2
			c-0.7,0.8-1.7,1.1-2.7,1.1c-0.6,0-1-0.2-1.4-0.6c-0.3-0.3-0.7-0.7-1-1c-0.2-0.2-0.4-0.2-0.6,0.1c-0.2,0.3-0.3,0.6-0.6,0.7
			c-0.5,0.3-1,0.7-1.6,0.6c-0.4-0.1-0.7,0-1.1,0.4c-0.6,0.7-0.8,0.6-1.6,0.2c-0.2-0.1-0.3-0.1-0.5-0.2c-0.3-0.2-0.6-0.2-0.8,0.1
			c-0.6,0.6-1.2,1.2-1.9,1.9c-0.2,0.2-0.3,0.4-0.6,0.3c-1-0.2-1.9,0.4-2.8,0.7c-0.4,0.1-0.7,0.4-1.1,0.6c-1,0.5-1.5,0.3-2.1-0.7
			c-0.1-0.1-0.2-0.2-0.2-0.4c-0.5-0.9-0.9-1.2-2.2-0.7c-0.4,0.2-0.7,0.4-1,0.7c-0.4,0.4-0.8,0.7-1.2,1c-0.5,0.3-1.2,0.4-1.8,0.5
			c-0.2,0-0.4,0-0.7,0c-1,0-1.9,0.1-2.9,0.5c-0.5,0.2-1.1,0.6-1.8,0.1c-0.2-0.1-0.5-0.2-0.6-0.5c-0.2-0.5-0.6-0.6-1.1-0.6
			c-0.3,0-0.6,0-0.9,0c-0.3,0-0.5,0-0.4,0.4c0,0.7,0.1,1.4,0.3,2.1c0.3,0.7,0.3,1.6,0.6,2.3c0.3,0.6,0.1,1.3,0.4,1.9
			c0.3,0.6,0.1,1.3,0.3,2c0.4,1.4,0.3,2.9,0.9,4.3c0,1,0.4,1.8,0.4,2.8c0,0.3,0.1,0.6,0.2,0.9c0.6,1.4,1.5,2.6,2.7,3.5
			c0.4,0.3,1,0.6,1.6,0.7c1.3,0.3,2.1,1.2,2.5,2.3c0.4,1,1.1,1.9,1.6,2.9c0.2,0.4,0.4,0.7,0.6,1.1c0.2,0.5,0.2,0.8-0.3,1.1
			c-0.6,0.4-1.3,0.7-2,1.1c-0.4,0.2-0.7,0-0.9-0.5c-0.3-0.5-0.6-1-1-1.5c-0.2-0.3-0.4-0.4-0.7-0.1c-0.6,0.6-1.1,1.3-1.5,2
			c-0.5,1.1-1.1,2.1-1.8,3.1c-0.4,0.7-1.1,1.1-2,1c-1.1-0.1-2.3-0.1-3.4,0c-0.7,0-1.4-0.1-2-0.3c-0.5-0.2-0.6,0-0.8,0.3
			c-0.1,0.2-0.1,0.4-0.3,0.6c-0.1,0.1-0.3,0.3-0.4,0.3c-0.7,0-1.3,0.4-2,0.2c-0.5-0.1-0.6-0.2-0.6-0.7c-0.1-0.7-0.1-1.5-0.2-2.2
			c0-0.1-0.2-0.2-0.3-0.2c-0.2,0-0.5,0.1-0.7,0.2c-1.7,0.9-3.4,1.8-5,2.9c-0.5,0.4-1.2,0.6-1.8,0.6c-1.8,0-3.6,0-5.4,0
			c-0.9,0-1.7-0.3-2.3-1.1c-0.5-0.6-0.5-1.2,0-1.8c0.3-0.3,0.5-0.6,1-0.7c0.8-0.2,1.4-1,1.9-1.6c0.2-0.2,0.3-0.5,0.5-0.7
			c0.5-0.6,1.1-0.7,1.7-0.4c0.4,0.2,0.7,0.1,0.8-0.2c0.2-0.5,0.6-0.8,1-1.1c0.6-0.6,1-1.2,1.3-2c0.3-0.8,0.7-1.5,0.9-2.3
			c0.1-0.6,0.4-1.1,0.4-1.7c0-1.1,0-2.3,0-3.4c0-0.6-0.2-1.2-0.2-1.8c0-0.6,0.1-1.3,0-1.9c-0.2-0.8-0.1-1.5-0.2-2.2
			c-0.3-1.4,0-2.8-0.2-4.1c-0.3-1.7-0.1-3.4-0.2-5.1c-0.1-1.1-0.2-1.3-1.3-1.7c-0.7-0.2-1.3-0.5-1.8-1c-0.3-0.3-0.6-0.5-1.1-0.5
			c-0.5,0-0.5,0-0.6,0.5c-0.1,0.6-0.6,0.9-1.1,1.2c-1,0.6-2.1,1-3.4,0.9c-0.4,0-1,0-1.3-0.2c-0.5-0.3-1-0.1-1.5-0.2
			c-0.5-0.1-0.9,0.2-1.3,0.4c-0.4,0.2-0.8,0.3-1.1,0.4c-0.5-0.4-1-0.1-1.5-0.3c-0.2-0.1-0.3-0.2-0.5-0.1c-0.5,0-0.9-0.1-1.3-0.4
			c-0.8-0.5-1.6-0.6-2.5-0.5c-0.9,0-1.8,0-2.6,0c-0.9,0-1.9-0.1-2.8-0.2c-0.4-0.1-0.9-0.2-1.2-0.4c-0.6-0.4-1.3-0.5-1.8-0.9
			c-0.5-0.4-0.6-0.9-0.3-1.5c0.2-0.5,0.4-1,0.3-1.5c0-0.2-0.1-0.4-0.2-0.5c-0.4-0.4-0.4-0.7-0.1-1.1c0.1-0.1,0-0.2,0.1-0.3
			c0.3-0.6,0.3-0.8-0.2-1.1c-0.6-0.5-1.2-0.9-1.9-1.4c-0.8-0.6-1.7-1.1-2.5-1.7c-0.5-0.4-0.5-0.9-0.2-1.5c0.5-0.8,0.9-1.5,1.3-2.3
			c0.1-0.2,0.3-0.5,0.2-0.8c-0.1-0.6,0.2-1.1,0.6-1.5c0.8-0.7,1.5-1.6,2.1-2.6c0.6-0.9,1.1-1.8,1.6-2.7c0.4-0.8,0.7-1.6,1.5-2.1
			c1.4-0.9,2.1-2.4,3-3.7c0.6-1,1.3-1.9,2-2.8c0.4-0.5,0.8-1.1,1.2-1.6c0.6-0.8,0.5-1.2-0.3-1.9c-0.2-0.1-0.3-0.3-0.5-0.5
			c-0.3-0.2-0.5-0.5-0.4-0.9c0-0.4-0.1-0.6-0.5-0.7c-0.2-0.1-0.4-0.2-0.6-0.3c-0.6-0.4-0.6-1,0-1.4c0.1-0.1,0.3-0.2,0.4-0.3
			c0.3-0.3,0.3-0.8,0-1.1c-0.4-0.4-0.9-0.5-1.3-0.7c-0.1,0-0.1-0.1-0.2-0.2c0.8,0,1.6,0,2.4,0c0.9,0.1,1.6-0.2,2.1-0.9
			c0.4-0.4,0.4-1.1,0.1-1.6c-0.5-0.7-1.1-1-2-1c-0.1-0.1-0.1-0.1-0.2-0.2c0-0.3,0.3-0.2,0.4-0.2c0,0.4,0.4,0.3,0.5,0.2
			c0.5-0.3,1.1-0.6,1.1-1.3c0.1,0,0.3,0,0.4-0.1c0.1,0,0.1-0.1,0.2-0.2c0.3-0.4,0.6-0.8,0.8-1.3c0.4-0.7,0.8-1.4,1-2.2
			c0.2-0.8,0.4-1.6,0.6-2.4c0.3-1.3,0.7-2.5,1.3-3.7c0.4-0.8,0.4-1.7,0-2.4C37.1,58,37,57.8,37,57.6c0-0.3,0.1-0.5-0.1-0.8
			c-0.2-0.2-0.1-0.8-0.4-0.8c-0.5,0-0.9-0.6-1.5-0.1c-0.3,0.3-0.8,0.3-1.3,0.4c-0.3,0.1-0.7,0-1,0c0-0.4-0.1-0.7,0.1-1.1
			c0.3-0.5,0.4-1,0.7-1.5c0.6-1,0.8-2.1,1.3-3.1c0.4-0.8,0.9-1.1,1.8-1.1c1.1,0,2.2,0.2,3.3,0.3c0.7,0,1.1-0.3,1.4-0.9
			c0.2-0.5,0.5-1.1,0.8-1.5c0.3-0.4,0-0.9,0.4-1.3c0.1-1,0.7-1.8,1-2.8c0.1-0.4,0.4-0.7,0.4-1.1c0-0.6,0.4-0.9,0.8-1.2
			c1.2-0.9,1.4-1.1,2.1-2.3c0.3-0.4,0.5-0.5,0.9-0.2c0.3,0.2,0.5,0.3,0.8,0.2c0.5-0.2,1-0.2,1.5-0.2c0.3,0,0.4-0.1,0.3-0.4
			c0-0.2,0-0.5-0.1-0.7c-0.4-0.8-0.3-1.7-0.3-2.5c0-0.5,0.4-0.8,0.7-1.1c0.2-0.3,0.4-0.5,0.1-0.7c-0.8-0.6-1.1-1.6-1.5-2.5
			c-0.5-0.9-1.1-1.7-1.3-2.8c-0.1-0.6-0.4-1.2-0.4-1.8c0-0.6,0-1.1,0-1.7c0.1-1.4,0.4-2.7,0.9-4c0.3-0.8,0.7-1.5,1-2.2
			c0.3-0.7,0.8-1.4,1.4-2c1-1,2-1.9,3.2-2.6c1.5-0.8,3-1.3,4.8-1.2c0.5,0,1.1,0,1.7,0c2,0.2,3.9,0.7,5.6,1.8c1.6,1,2.8,2.4,3.8,4
			c0,0.1,1.3,3.6,1.3,3.6c0.1,0.9,0.1,1.8,0.2,2.7c0,0.4-0.3,0.8-0.2,1.2c0.1,0.4,0.1,0.9,0,1.3c-0.1,0.4-0.3,0.8-0.4,1.1
			c-0.1,0.5,0.1,1-0.2,1.5c-0.1,0.1-0.1,0.4-0.2,0.4c-0.4,0.2-0.7,0.4-0.8,0.9c-0.1,0.3-0.3,0.7-0.5,1c-0.4,0.6-0.6,1.3-1.1,1.9
			c-0.3,0.2-0.2,0.7,0,1.1c0.2,0.4,0.3,0.9,0.6,1.3c0.3,0.4,0.2,0.9,0.2,1.3c0,0.3-0.3,0.4-0.6,0.3c-0.4-0.1-0.7-0.2-1-0.4
			c-0.4-0.2-0.7-0.3-1,0c-0.4,0.3-0.5,0.9-0.4,1.3c0.1,0.3,0.2,0.6,0.4,0.8c0.3,0.3,0.5,0.7,1.1,0.6c0.4-0.1,0.8,0,1.2,0
			c0.4,0,0.5,0.2,0.6,0.5c0.1,1,0.6,1.6,1.4,2.2c0.8,0.6,1.5,1.3,2,2.2c0.2,0.3,0.3,0.8,0.3,1.2c0,0.8,0,1.7,0,2.5
			c0,0.5,0.1,0.8,0.4,1.1c0.8,0.8,1.3,1.8,1.8,2.8c0.2,0.3,0.4,0.6,0.6,1c0.2,0.3,0.5,0.3,0.8,0.4c0.9,0.1,1.7,0.4,1.9,1.5
			c0.1,0.4,0.4,0.9,0.7,1.1c0.4,0.2,1.1,0.2,1.5,0c0.4-0.2,0.9-0.1,1.3-0.4c0.4-0.4,0.9-0.6,1.3-1c0.5-0.5,1.1-0.8,1.8-0.7
			c0.4,0,0.8-0.2,1.2-0.2c0.4-0.1,0.8,0,1.3-0.2c0.5-0.2,1.1-0.2,1.6,0c0.7,0.3,1.3,0.1,2,0.2c0.7,0,1.4,0,2.1,0
			c0.6,0,1.2,0.2,1.8,0.2c0.6,0,1.2,0,1.8,0c0.6,0,1.3,0,1.9,0c0.5,0,0.9,0.3,1.5,0.2c0.1,0,0.3,0.1,0.4,0.2
			c0.2,0.2,0.3,0.5,0.6,0.8c0.2,0.2,0.5,0.3,0.7,0.5c0.2,0.2,0.2,0.6-0.1,0.7c-0.7,0.1-1.3,0.5-2.1,0.5c-1.2-0.1-2.5,0-3.7,0
			c-0.2,0-0.4,0-0.6,0c-0.1,0-0.8,0.5-0.8,0.5c0.1,0.1,0.3,0.2,0.5,0.3c0.5,0.4,1,0.8,1.5,1.2c0.4,0.4,0.3,0.9-0.3,1
			c-0.5,0.1-1.1,0-1.6-0.1c-0.2,0-0.3-0.1-0.5-0.1c-1,0.1-1.9-0.2-2.8-0.5c-0.9-0.3-1.8-0.1-2.7-0.1c-0.1,0-0.2,0.1-0.4,0.2
			c-1.5,0.1-2.7,0.7-3.9,1.3c-0.2,0.1-0.3,0.2-0.5,0.4c-0.2,0.2-0.2,0.4-0.1,0.7c0.3,0.6,0.7,1.1,0.6,1.9c0,0,0.1,0.1,0.2,0.2
			c0.4,0.2,0.8,0.4,1.2,0.6c0.7,0.3,1.3,0.2,1.9-0.2c0,1-0.3,2-0.7,2.9c-0.3,0.6-0.8,1.2-0.6,2c-0.3,0.1-0.4,0.3-0.5,0.5
			c-0.2,0.4-0.4,0.9-0.4,1.4c-0.6,0.6-0.7,1.4-1,2.1c-0.2,0.5-0.4,0.8-0.7,1.1c-0.2,0.2-0.5,0.4-0.7,0.6c-0.1,0.1-0.1,0.2-0.2,0.3
			c0.1,0,0.2,0.1,0.3,0.1c0.8,0,1.7,0,2.5,0c0.1,0,0.2-0.1,0.3-0.2c-0.1-0.1-0.2-0.2-0.3-0.2c-0.1-0.1-0.3-0.1-0.5-0.2
			c-0.2-0.1-0.4-0.3-0.4-0.6c0.1-0.3,0-0.7,0.1-1c0.2-0.6,0.6-1.1,0.7-1.7c0-0.3,0.2-0.2,0.4-0.2c0.8,0,1.6,0,2.4,0
			c0.4,0,1-0.1,1.3,0.1c0.3,0.2,0.4,0.8,0.7,1.1c0.2,0.2,0.2,0.5,0.3,0.8c0.1,0.3,0.1,0.5,0.2,0.8c0.3,0.7,0.2,0.9-0.5,1
			c-0.1,0-0.2,0-0.3,0c-0.2,0-0.5-0.1-0.5,0.2c0,0.3,0.3,0.2,0.5,0.2c1.1,0,2.2,0,3.3,0c0.1,0,0.2,0,0.3,0c0.1,0,0.2-0.1,0.2-0.1
			c-0.1-0.1-0.1-0.2-0.2-0.3c-0.1-0.1-0.3-0.1-0.5-0.2c-0.3-0.2-0.7-0.4-0.7-0.9c0.5-0.1,1-0.2,1.5-0.3c0.2,0,0.4-0.1,0.6-0.1
			c0.5,0,0.5,0,0.5-0.6c0-1,0-2.1,0-3.1c0.3,0,0.2,0.2,0.2,0.4c0,1.2,0,2.4,0,3.6c0,0.4,0.2,0.8-0.2,1.1c-0.3,0.3-0.6,0.1-0.9,0.1
			c-0.1,0-0.1,0.1-0.2,0.2c0.1,0.1,0.2,0.2,0.3,0.2c1.1,0,2.2,0,3.3,0c0,0,0.1,0,0.1,0c0-0.1,0.1-0.1,0.1-0.2c0-0.1-0.1-0.2-0.1-0.2
			c0,0-0.1,0-0.2,0c-0.9-0.1-0.9-0.1-1-1c0-0.1,0-0.2,0-0.3c0.4,0,0.8,0,1.2,0c0.3,0,0.7,0.1,1,0.2c0,0.5,0,1,0,1.5
			c0,0.1,0.1,0.2,0.2,0.2c0.1-0.1,0.2-0.1,0.3-0.2c0,0,0-0.1,0-0.1c0.1-0.4,0.2-0.4,0.4-0.2c0.2,0.2,0.3,0.5,0.5,0.5
			c0.5,0.1,1.1,0.1,1.6,0c0.2,0,0.4-0.3,0.6-0.4c0.5-0.3,0.6-0.8,0.5-1.3c0-0.3,0-0.6,0-0.9c0.5,0.2,0.1,0.6,0.2,0.8
			c0.1,0.1,0.1,0.3,0.2,0.3c1,0,2,0,3,0c0,0,0.1-0.1,0.1-0.2c0.4,0.5,0.4,1.2,0.9,1.7c0.1,0.1,0,0.3,0,0.4c-0.1,0.3-0.3,0.6-0.4,0.8
			c-0.3,0.7-0.9,1.1-1.6,1.5c-0.4,0.2-0.6,0.5-0.5,0.9c0.1,0.3,0.6,0.5,0.8,0.4c0.4-0.3,0.8-0.6,0.9-1c0.2-0.6,0.5-1.1,0.7-1.6
			c0.3-1,0.9-1.8,1-2.9c0,0,0.1,0,0.1,0c1.1,0,2.2,0,3.3,0c0,0.2-0.1,0.4,0,0.5c0.5,0.9,1.5,1.1,2.5,0.9c0.6-0.1,1.1-0.6,1.6-0.8
			c0.1,0,0.2-0.3,0.3,0c0.1,0.2,0.2,0.4,0.3,0.5c0.7,0.7,1.5,0.6,2.1-0.2C118.6,75.1,118.6,75,118.7,74.9z M59.9,71.9
			c0-0.9,0-1.8,0-2.6c0-0.5-0.2-0.7-0.7-0.6c-0.2,0.1-0.4,0.2-0.6,0.3c0.2,0.1,0.3,0.1,0.4,0.2c0.1,0.1,0.2,0.3,0.2,0.5
			c0,0.6,0,1.2,0,1.8c0,0.1-0.1,0.2-0.2,0.3c0,0-0.2,0-0.2-0.1c-0.3-0.5-0.8-0.3-1.2-0.3c-0.5,0-0.9,0.2-1.2,0.5
			c-0.2,0.2-0.2,0.5-0.4,0.6c-0.4,0.3-0.3,0.7-0.3,1.1c-0.1,0.5,0.1,0.8,0.4,1.2c0.2,0.2,0.4,0.3,0.5,0.6c0.4,0.6,0.9,0.6,1.4,0.5
			c0.3-0.1,0.6-0.3,0.9-0.5c0.3-0.2,0.2,0,0.3,0.1c0,0.1,0.1,0.1,0.2,0.1c0.3,0,0.6,0,0.9,0c0.1,0,0.1-0.1,0.2-0.1
			c-0.1,0-0.2-0.1-0.2-0.1c-0.3-0.1-0.4-0.3-0.4-0.7C59.9,73.8,59.9,72.8,59.9,71.9z M61.9,143.4c0,0.5,0,1.1,0,1.6
			c0,0.1,0.2,0.2,0.3,0.2c0.2-0.1,0.4-0.2,0.5-0.3c0.6-0.3,1-0.6,1.2-1.2c0.1-0.5,0.5-0.8,1-1c0.6-0.2,0.7-0.5,0.7-1.1
			c-0.1-0.7,0-1.4,0-2.1c-0.1-0.8-0.1-1.5-0.7-2.1c-0.3-0.3-0.2-0.7-0.1-0.9c0.2-0.3,0.1-0.4-0.1-0.6c-0.1-0.2-0.2-0.4-0.2-0.6
			c-0.5-1.4-1.1-2.8-1.7-4.2c-0.3-0.6-0.5-1.3-0.7-1.9c-0.2-0.8-0.6-1.5-0.9-2.3c-0.1-0.2-0.3-0.2-0.4,0c-0.1,0.1-0.2,0.3-0.2,0.4
			c-0.1,0.3,0.1,0.7-0.2,0.9c0.1,0.6-0.3,1.2-0.2,1.9c0,0.7,0,1.4-0.2,2c-0.2,0.6-0.1,1.1-0.2,1.7c-0.1,0.6-0.3,1.1-0.2,1.7
			c0,0.6,0.1,1.3,0,1.9c-0.1,0.7,0.2,1.3,0.6,1.8c0.3,0.5,0.7,1,1.2,1.4c0.4,0.5,0.6,1,0.7,1.6C61.9,142.5,61.9,142.9,61.9,143.4z
			 M63.6,59.7C63.6,59.7,63.6,59.8,63.6,59.7c0.1,0.1,0.1,0.2,0.1,0.3c-0.1,1.1,0.1,2,0.9,2.8c0.5,0.6,0.9,1.4,1.3,2.1
			c0.3,0.5,0.7,0.9,1.1,1.3c0.1,0.1,0.3,0.2,0.4,0.3c1,1,2,1.9,3.1,2.9c0.8,0.7,1.8,1.1,2.6,1.7c0.1,0.1,0.3,0,0.5-0.1
			c0-0.1,0-0.3-0.1-0.4c-0.6-1.3-1.3-2.5-1.8-3.8c-0.5-1.3-1-2.5-1.4-3.8c-0.5-1.6-1.3-3-2.4-4.2c-0.6-0.6-1-1.3-1.4-2.1
			c-0.3-0.6-0.6-1.1-0.9-1.6c-0.2-0.3-0.4-0.3-0.6-0.1c-0.5,0.5-0.8,1.2-1,1.9C63.7,58,63.7,58.9,63.6,59.7z M43.2,76.5
			c0-0.3,0-0.6,0-0.9c0-0.5,0.2-0.1,0.3-0.1c0.5,0.2,1.1,0.4,1.6,0.1c0.5-0.3,0.9-0.6,1.2-1.2c0.3-0.8,0.3-1.5-0.1-2.1
			c-0.4-0.6-1-1.2-1.9-0.9c-0.1,0-0.1,0.1-0.2,0.1c0.1,0,0.1,0.1,0.2,0.1c0.7,0,1.1,0.5,1.3,1c0.1,0.5,0.1,1.1-0.1,1.7
			c-0.4,1-0.6,1.2-1.5,1c-0.1,0-1-0.6-1-0.7c0-0.8,0-1.5,0-2.3c0-0.4,0-1-0.1-1c-0.3,0-0.7-0.1-0.9,0.2c-0.1,0.1-0.2,0.1-0.3,0.1
			c0.1,0,0.2,0.1,0.2,0.1c0.3,0.1,0.4,0.3,0.4,0.7c0,1.2,0,2.4,0,3.6c0,0.4,0,0.9,0,1.3c0,0.2,0,0.3-0.3,0.3c-0.1,0-0.2,0.1-0.4,0.1
			c0.1,0,0.3,0.1,0.4,0.1c0.5,0,1,0,1.4,0c0,0,0.1-0.1,0.1-0.1c-0.1,0-0.1-0.1-0.2-0.1c-0.1-0.1-0.2-0.2-0.2-0.3
			C43.2,77.2,43.2,76.8,43.2,76.5z M65,73.3c0-0.4,0-0.7,0-1.1c0-0.8,0-0.8-0.9-0.8c-0.1,0-0.2,0-0.2,0c-0.1,0-0.2,0.1-0.2,0.2
			c0,0.1,0.1,0.2,0.1,0.2c0.6-0.1,0.5,0.3,0.5,0.7c0,0.5,0,1,0,1.5c0,0.3,0.1,0.6-0.2,0.8c-0.3,0.3-0.6,0.5-1,0.5
			c-0.5,0.1-0.8-0.1-0.8-0.6c0-0.7,0-1.5,0-2.2c0-1,0-1-1-0.9c-0.1,0-0.1,0-0.2,0c0,0-0.1,0-0.1,0.1c0,0,0.1,0.1,0.1,0.1
			c0.5-0.1,0.5,0.2,0.5,0.6c0,0.7,0,1.5,0,2.2c0,0.8,1,1.6,1.8,1.1c0.2-0.1,0.4-0.3,0.6-0.4c0.1,0,0.2,0,0.2,0
			c0,0.6,0.5,0.2,0.7,0.3c0.1,0.1,0.3,0,0.5,0c-0.1-0.1-0.3-0.2-0.4-0.3c-0.1-0.1-0.2-0.3-0.2-0.5C65,74.3,65,73.8,65,73.3z
			 M55.1,73.4c0.2-0.6-0.3-1.1-0.7-1.5c-0.3-0.4-0.8-0.6-1.4-0.6c-0.6,0-1.2,0-1.5,0.5c-0.3,0.5-0.8,0.9-0.8,1.5
			c0,1.2,1,2.3,2.2,2.4C53.9,75.9,55.3,74.6,55.1,73.4z M37.4,73.7c0-0.3-0.1-0.6,0-0.9c0.1-0.6-0.2-0.9-0.6-1.3
			c-0.3-0.3-0.8-0.1-1.1-0.2c-0.7-0.1-1.1,0.2-1.5,0.7c-0.1,0.2-0.1,0.3,0,0.5c0.2,0.2,0.3,0.2,0.4,0c0.1-0.2,0.2-0.3,0.4-0.5
			c0.3-0.4,0.9-0.5,1.3-0.3c0.4,0.2,0.3,1,0,1.2c-0.6,0.4-1.3,0.5-1.8,1c-0.4,0.4-0.4,0.8-0.3,1.2c0,0.2,0.3,0.4,0.4,0.4
			c0.6,0,1.2,0.1,1.7-0.2c0.3-0.2,0.4-0.2,0.7,0c0.5,0.4,1.1,0.3,1.4-0.1c0-0.1,0-0.1,0-0.2c0,0-0.1-0.1-0.1,0
			c-0.1,0-0.1,0.1-0.2,0.1c-0.1,0.1-0.3,0.2-0.5,0.2c0-0.1-0.1-0.3-0.1-0.4C37.4,74.5,37.4,74.1,37.4,73.7z M72.8,71.4
			c-0.4,0.1-0.8,0-1.2,0.3C71,72,70.9,72.5,70.8,73c-0.5,1.6,0.8,3,2.2,2.8c0.7-0.1,1-0.6,1.5-1c0,0,0-0.1,0-0.1
			c-0.1,0-0.2-0.1-0.2,0c-0.1,0.1-0.3,0.1-0.3,0.3c-0.5,0.7-1.1,0.3-1.7,0.4c-0.2-0.4-0.4-0.8-0.6-1.3c-0.1-0.2,0-0.5,0-0.8
			c0-0.3,0.1-0.4,0.4-0.4c0.7,0,1.5,0,2.2,0c0.1,0,0.2-0.1,0.3-0.1c0-0.1-0.1-0.3-0.1-0.4c-0.1-0.2-0.2-0.3-0.3-0.4
			C73.7,71.5,73.4,71.3,72.8,71.4z M67.2,73.3c0-0.2,0-0.4,0-0.5c0-0.7,0.9-1.4,1.6-1.2c0.2,0.1,0.3,0.3,0.4,0.4
			c0.2,0.5,0.3,0.5,0.7,0.3c0.1-0.1,0.2-0.2,0.2-0.2c-0.3-0.3-0.6-0.6-0.9-0.7c-0.7-0.2-1.4,0-2,0.4c-0.7,0.5-0.9,1.2-0.8,2.1
			c0,0.7,0.7,1.6,1.4,1.8c0.7,0.2,1.7,0,2.2-0.5c0.1-0.1,0.2-0.2,0.2-0.4c0-0.1-0.1-0.3-0.1-0.4c-0.1,0.1-0.2,0.1-0.2,0.2
			c-0.8,1-1.8,0.9-2.3-0.1C67.2,74.1,67.2,73.7,67.2,73.3z M75.8,73.5c0,0.4,0,0.8,0,1.2c0,0.2-0.1,0.3-0.2,0.5
			c-0.1,0.1-0.3,0.2-0.4,0.3c0.2,0,0.4,0,0.5,0.1c0.4,0,0.7,0,1.1,0c0.1,0,0.2-0.1,0.3-0.1c-0.1,0-0.2-0.1-0.2-0.1
			c-0.3-0.1-0.4-0.3-0.4-0.7c0-0.5,0-1,0-1.4c0-0.6,0.3-1,0.7-1.3c0.1-0.1,0.3,0,0.4,0c0.2,0.1,0.3,0.3,0.4,0.4
			c0.2,0.2,0.5,0.1,0.5-0.2c0.1-0.3-0.1-0.7-0.4-0.7c-0.4,0-0.9-0.1-1.2,0.4c-0.2,0.3-0.2,0.3-0.4-0.1c0-0.1-0.2-0.2-0.3-0.2
			c-0.1,0-0.2,0.2-0.4,0.2c-0.2,0-0.4,0-0.6,0.1c0.2,0.1,0.3,0.2,0.5,0.4c0.1,0.1,0.1,0.3,0.1,0.4C75.8,72.8,75.8,73.2,75.8,73.5z
			 M48.7,73.9c0-0.4,0-0.8,0-1.2c0-0.4-0.1-0.7-0.2-1.1c0-0.1-0.2-0.2-0.3-0.2c-0.2,0-0.3,0.2-0.5,0.2c-0.2,0-0.3,0-0.5,0.1
			c0.1,0.1,0.3,0.2,0.4,0.3c0.1,0.1,0.2,0.2,0.2,0.4c0,0.8,0,1.6,0,2.4c0,0.3-0.2,0.4-0.4,0.6c-0.1,0.1-0.2,0.1-0.3,0.1
			c0.1,0,0.2,0.1,0.3,0.1c0.5,0,1.1,0,1.6,0c0.1,0,0.2-0.1,0.3-0.1c-0.1,0-0.2-0.1-0.3-0.1c-0.3,0-0.4,0-0.4-0.4
			C48.7,74.6,48.7,74.3,48.7,73.9z M39.9,73.8c0.4,0,0.7,0,1.1,0c0.1,0,0.2-0.2,0.2-0.3c0-0.1-0.1-0.3-0.2-0.3c-0.7,0-1.4,0-2.1,0
			c-0.1,0-0.2,0.2-0.2,0.3c0,0.1,0.1,0.3,0.2,0.3C39.3,73.8,39.6,73.8,39.9,73.8z M79.1,75.2c0-0.3,0.1-0.6-0.4-0.5
			c-0.3,0-0.6,0.2-0.6,0.5c0,0.2,0.5,0.6,0.8,0.6C79.3,75.7,79,75.4,79.1,75.2z M50.6,72.1c-0.2-0.3-0.3-0.6-0.5-0.7
			c-0.3-0.1-0.7-0.2-0.9,0.2c0,0,0,0.1,0,0.2c0.4-0.1,0.6,0.2,0.8,0.4C50.1,72.3,50.3,72.2,50.6,72.1z"/>
		<path fill="#EDA9B1" d="M88.3,64.3c0.2-0.4,0.7-0.2,0.9-0.6c0.2-0.3,0.7-0.2,1.1-0.3c0.4-0.1,0.8,0.2,1.1,0.5
			c0.6,0.7,1.2,1.4,1.7,2.1c0.4,0.6,0.6,1.2,0.9,1.8c0.1,0.2,0.1,0.5,0,0.6c-0.1,0.1-0.4,0.1-0.5,0.2c-0.2,0.1-0.3,0.1-0.5,0.2
			c-0.1,0-0.2,0-0.3,0.1c-0.2,0.1-0.4,0.3-0.2,0.5c0.8,1,0.7,2-0.1,3c-0.2,0.2-0.2,0.5-0.2,0.8c-0.5-0.2-0.4-0.8-0.6-1.2
			c-0.6-1.1-1-2.4-1.6-3.5c0.2-0.5-0.6-0.7-0.5-1.2C89.2,66.4,88.8,65.3,88.3,64.3z"/>
		<path fill="#C71B21" d="M88.3,64.3c0.4,1,0.9,2,1.3,3.1c-0.1,0.5,0.7,0.7,0.5,1.2c0.6,1.1,1,2.4,1.6,3.5c0.2,0.4,0.1,1,0.6,1.2
			c0.1,0.2-0.2,0.6,0.2,0.7c0,0.5,0.3,0.7,0.7,0.9c0.1,0.1,0.3,0.1,0.5,0.2c0.1,0.1,0.1,0.2,0.2,0.3c-0.1,0.1-0.2,0.1-0.2,0.1
			c-0.1,0-0.2,0-0.3,0c-1.1,0-2.2,0-3.3,0c-0.2,0-0.5,0.2-0.5-0.2c0-0.4,0.3-0.2,0.5-0.2c0.1,0,0.2,0,0.3,0c0.7-0.1,0.8-0.3,0.5-1
			c-0.1-0.2-0.1-0.5-0.2-0.8c-0.1-0.3-0.1-0.6-0.3-0.8c-0.3-0.3-0.4-0.9-0.7-1.1c-0.3-0.2-0.8-0.1-1.3-0.1c-0.8,0-1.6,0-2.4,0
			c-0.2,0-0.4-0.1-0.4,0.2c-0.1,0.6-0.5,1.1-0.7,1.7c-0.1,0.4-0.1,0.7-0.1,1c-0.1,0.3,0.2,0.5,0.4,0.6c0.1,0.1,0.3,0.1,0.5,0.2
			c0.1,0.1,0.2,0.2,0.3,0.2c-0.1,0.1-0.2,0.2-0.3,0.2c-0.8,0-1.7,0-2.5,0c-0.1,0-0.2-0.1-0.3-0.1c0.1-0.1,0.1-0.2,0.2-0.3
			c0.2-0.2,0.5-0.4,0.7-0.6c0.3-0.3,0.6-0.7,0.7-1.1c0.3-0.7,0.4-1.6,1-2.1c0-0.5,0.3-0.9,0.4-1.4c0.1-0.3,0.2-0.4,1.2,0.4
			c1.2,0.9,1.7,0.9,2.1,0.9c0.4,0,0.6-0.2,0.4-0.6c-0.3-0.5-0.5-1.1-0.6-1.6c-0.2-0.6-0.6-1-0.7-1.7c0-0.2-0.2-0.4-0.4-0.6
			c-0.1-0.1-0.2-0.2-0.3,0c-0.3,0.7-0.7,1.3-0.8,2.1c-0.1,0.4-0.5,0.5-0.5,0.8c0,0.4-0.2,0.7-0.3,1.1c-0.2,0.4-0.2,0.5,0.3,0.5
			c0.5,0,1,0,0.7-0.9c-0.9-1.6-0.4-2.3-0.1-2.8c0.5-0.9,0.8-1.8,0.7-2.9c0.1,0,0.3,0,0.4-0.1C88,64.4,88.2,64.4,88.3,64.3z"/>
		<path fill="#C71B21" d="M118.7,74.9c-0.1,0.1-0.2,0.2-0.2,0.3c-0.6,0.8-1.4,0.9-2.1,0.2c-0.1-0.1-0.3-0.3-0.3-0.5
			c-0.1-0.3-0.2,0-0.3,0c-0.6,0.2-1,0.7-1.6,0.8c-1,0.2-2,0-2.5-0.9c-0.1-0.1,0-0.4,0-0.5c0-0.7,0.5-1.1,0.9-1.5
			c0.7-0.5,1.5-1,2.4-1.2c0.1,0,0.1,0,0.2-0.1c0.3-0.2,0.8-0.2,0.9-0.5c0.2-0.3,0.1-0.8,0-1.2c-0.1-0.6-0.7-0.7-1.2-0.9
			c-0.2,0-0.4,0-0.5,0c-0.2,0.1-0.6-0.2-0.7,0.2c-0.3,0.1-0.5,0.3-0.4,0.6c0,0.3-0.1,0.6-0.4,0.7c-0.2,0-0.4,0-0.7,0
			c0-0.2,0-0.4,0-0.7c0.3-0.3,0.5-0.6,0.8-0.9c0.2-0.3,0.5-0.2,0.8-0.2c0.7,0,1.3,0,2,0c0.7,0,1.1,0.5,1.5,1c0.1,0.1,0,0.4,0,0.5
			c0,0.6,0,1.2,0,1.9c0,0.7,0,1.3,0,2c0,0.4,0.1,0.9,0.4,1c0.4,0.2,0.7-0.3,0.9-0.5c0,0,0-0.1,0-0.1
			C118.8,74.5,118.7,74.7,118.7,74.9z M113.2,73.6c-0.5,0.4-0.2,0.8,0,1.1c0.2,0.3,0.6,0.5,1,0.4c0.7-0.3,1.4-0.4,1.9-1.1
			c0-0.7,0-1.4,0-2.1c0-0.3-0.2-0.5-0.5-0.3c-0.5,0.2-1,0.4-1.4,0.7C113.8,72.7,113.2,72.9,113.2,73.6z"/>
		<path fill="#C71B21" d="M108.4,74.2c0,0-0.1,0-0.1,0c-0.2,1-0.7,1.9-1,2.9c-0.2,0.5-0.5,1-0.7,1.6c-0.1,0.4-0.6,0.7-0.9,1
			c-0.2,0.2-0.7-0.1-0.8-0.4c-0.1-0.4,0-0.7,0.5-0.9c0.7-0.4,1.3-0.8,1.6-1.5c0.1-0.3,0.3-0.5,0.4-0.8c0-0.1,0.1-0.3,0-0.4
			c-0.4-0.5-0.4-1.2-0.9-1.7c-0.1-0.7-0.4-1.3-0.7-1.9c-0.2-0.4-0.4-0.8-0.6-1.3c-0.2-0.4-0.5-0.7-0.6-1.1c-0.1-0.6-0.8-0.3-0.9-0.8
			c0.9,0,1.7,0,2.6,0c0.1,0,0.2,0.1,0.3,0.2c-0.2,0-0.4-0.1-0.4,0.2c-0.3,0.2-0.3,0.4,0,0.7c0.3,1.1,1,2,1.3,3.1c0,0,0,0.1,0,0.1
			c0.2,0.3,0.4,0.7,0.6,0.7c0.3,0,0.4-0.5,0.5-0.8c0.2-0.6,0.5-1.2,0.7-1.8c0.2-0.4,0.4-0.8,0.5-1.2c0.2-0.6,0.1-0.8-0.7-1
			c-0.1,0-0.1-0.1-0.2-0.2c0.8,0,1.6,0,2.4,0c0,0.2,0.1,0.4-0.2,0.4c-0.6,0-0.7,0.4-1,0.8c-0.6,0.9-0.9,2-1.3,3
			c-0.1,0.2-0.1,0.4-0.2,0.7c-0.1,0.1-0.1,0.1-0.2,0.2C108.4,74.1,108.4,74.2,108.4,74.2z"/>
		<path fill="#C71B21" d="M102.8,73.1c0,0.3,0,0.6,0,0.9c0.1,0.5-0.1,1-0.5,1.3c-0.2,0.1-0.4,0.4-0.6,0.4c-0.5,0.1-1.1,0.1-1.6,0
			c-0.2,0-0.4-0.3-0.5-0.5c-0.3-0.2-0.4-0.2-0.4,0.2c0,0,0,0.1,0,0.1c-0.1,0.1-0.2,0.2-0.3,0.2c-0.1-0.1-0.2-0.2-0.2-0.2
			c0-0.5,0-1,0-1.5c0-0.2-0.1-0.5,0.3-0.4c0.3,0,0.1,0.3,0.2,0.4c0,0.1,0,0.1,0.1,0.2c0.4,0.9,1,1.3,2,1.2c0.9-0.1,1.3-0.9,0.8-1.8
			c-0.1-0.3-0.3-0.3-0.5-0.5c-0.6-0.3-1.2-0.7-1.8-1.1c-1.4-0.9-1.3-2.1-0.2-3.1c0.1-0.1,0.2-0.2,0.3-0.2c0.4,0,0.9,0,1.3,0
			c0.1,0.1,0.3,0.1,0.4,0.2c0.5,0.2,0.5,0.2,0.8-0.2c0,0,0.1,0,0.1,0c0,0.7,0,1.3,0,2c-0.3-0.4-0.6-0.9-1-1.3
			c-0.6-0.7-1.1-0.6-1.8,0.1c0,0-0.1,0.1-0.1,0.2c-0.3,0.3-0.3,0.6,0,0.9c0.3,0.3,1,0.8,1.2,0.9c0.6,0.2,1.2,0.6,1.6,1
			C102.6,72.6,102.7,72.9,102.8,73.1z"/>
		<path fill="#C71B21" d="M30.8,71.8c0.1,0.1,0.1,0.1-0.4,1c-0.7,1.1-0.7,1.6-0.7,2c0,0.4,0.2,0.6,0.7,0.6c0.3,0,0.6-0.2,0.9-0.2
			c0.3,0,0.5-0.1,0.6-0.5c0.4-1.1,0.3-1.8-0.7-2.4c-0.5-0.3-0.9-0.1-1.4-0.2c0,0.3-0.1,0.6-0.1,0.9c0,0.2,0,0.4,0.7-0.2
			c1.5-0.8,2.2-0.5,2.6,0.2c0.3,0.5,0.3,1.2-0.1,1.6c-0.6,0.7-1.2,1-2.1,0.9c-0.8-0.1-1.6,0-2.4,0c-0.2,0-0.4,0-0.7,0
			c0.1-0.1,0.1-0.2,0.2-0.2c0.8-0.2,0.9-0.4,0.9-1.1c0-1.5,0-3,0-4.5c0-0.2,0.1-0.4-0.2-0.4c-0.1-0.1-0.1-0.1-0.2-0.2
			c0.1-0.1,0.2-0.2,0.3-0.2c0.1,0,0.4,0.1,0.4-0.2c0.5,0,1,0,1.5,0c0,0.3-0.2,0.2-0.4,0.2c-0.2,0-0.5-0.1-0.5,0.2c0,0.5,0,1,0,1.5
			c0,0.4-0.1,0.8,0.1,1C30,71.9,30.5,71.8,30.8,71.8z"/>
		<path fill="#C71B21" d="M96.5,73.8c0,0.1,0,0.2,0,0.3c0,0.9,0,0.9,1,1c0.1,0,0.2,0,0.2,0c0.1,0.1,0.1,0.2,0.1,0.2
			c0,0-0.1,0.1-0.1,0.2c0,0-0.1,0-0.1,0c-1.1,0-2.2,0-3.3,0c-0.1,0-0.2-0.2-0.3-0.2c0.1-0.1,0.1-0.2,0.2-0.2
			c0.3-0.1,0.6,0.1,0.9-0.1c0.4-0.3,0.2-0.8,0.2-1.1c0-1.2,0-2.4,0-3.6c0-0.2,0.1-0.4-0.2-0.4c-0.1-0.5-0.6-0.4-1-0.5
			c-0.1,0-0.1-0.1-0.1-0.2c0,0,0.1-0.2,0.1-0.2c0.7,0.1,1.3-0.2,2-0.3c0.3,0,0.4,0.1,0.4,0.4C96.5,70.7,96.5,72.2,96.5,73.8z"/>
		<path fill="#EDA9B1" d="M28.6,69.4c0.3,0,0.2,0.2,0.2,0.4c0,1.5,0,3,0,4.5c0,0.7-0.1,0.8-0.9,1.1c-0.1,0-0.1,0.1-0.2,0.2
			c-0.3-0.2-0.7-0.4-1-0.7c-0.4-0.4-0.4-0.8-0.1-1.2c0.3-0.5,0.8-0.6,1.3-0.7c0.6-0.2,0.8-0.5,0.7-1C28.6,71.1,28.6,70.2,28.6,69.4z
			"/>
		<path fill="#EDA9B1" d="M102,73.6c0.5,0.9,0.1,1.7-0.8,1.8c-1,0.1-1.6-0.3-2-1.2c0-0.1-0.1-0.1-0.1-0.2c0.9,0,1.7,0,2.6,0
			C102.1,74,101.9,73.8,102,73.6z"/>
		<path fill="#C71B21" d="M32.8,70.5c0,0.7-0.6,1-1.1,1.3c-0.1,0.1-0.4,0.2-0.5-0.2c0.1-0.1,0.3-0.1,0.3-0.2
			c0.1-0.5,0.2-1.1,0.1-1.6c0-0.2-0.4-0.4-0.6-0.6c0-0.3,0.3-0.2,0.4-0.2C32.6,69.2,32.7,69.4,32.8,70.5z"/>
		<path fill="#C71B21" d="M96.5,65.6c-0.1,0.1-0.1,0.1-0.2,0.2c-0.3,0-0.6,0-0.9,0c-0.6-0.5-0.6-0.8-0.2-1.3
			c0.4-0.4,0.8-0.4,1.3,0.2C96.5,65.1,96.5,65.4,96.5,65.6z"/>
		<path fill="#EDA9B1" d="M118.5,74.5c0,0,0,0.1,0,0.1c-0.3,0.3-0.5,0.8-0.9,0.5c-0.3-0.2-0.4-0.6-0.4-1c0-0.7,0-1.3,0-2
			c0-0.6,0-1.2,0-1.9c0.3,0,0.2,0.2,0.2,0.4c0,1.1,0,2.1,0,3.2c0,0.6,0,0.6,0.7,0.6C118.2,74.5,118.3,74.5,118.5,74.5z"/>
		<path fill="#EDA9B1" d="M106.4,69.2c-0.1-0.1-0.2-0.2-0.3-0.2c-0.9,0-1.7,0-2.6,0c0.1-0.1,0.1-0.2,0.2-0.2c0.9,0,1.8,0,2.7,0
			c0.1,0,0.1,0.1,0.2,0.2C106.5,69,106.4,69.1,106.4,69.2z"/>
		<path fill="#EDA9B1" d="M111.2,69c-0.8,0-1.6,0-2.4,0c0-0.1,0.1-0.2,0.1-0.2c0.8,0,1.5,0,2.3,0C111.2,68.8,111.2,68.9,111.2,69z"
			/>
		<path fill="#EDA9B1" d="M31.5,69c-0.2,0-0.4-0.1-0.4,0.2c-0.4,0-0.9,0-1.3,0c0-0.4,0.3-0.2,0.5-0.2c0.2,0,0.4,0.1,0.4-0.2
			c0.2,0,0.4,0,0.6,0C31.3,68.8,31.4,68.9,31.5,69z"/>
		<path fill="#EDA9B1" d="M102.4,70.7c0-0.7,0-1.3,0-2c0.1,0,0.2,0.1,0.2,0.1c0,0.6,0,1.2,0,1.8C102.6,70.7,102.5,70.7,102.4,70.7z"
			/>
		<path fill="#EDA9B1" d="M29.1,68.7c0,0.3-0.2,0.2-0.4,0.2c-0.1,0-0.2,0.1-0.3,0.2c-0.1,0-0.1,0-0.2,0c-0.2,0-0.4,0.1-0.4-0.2
			c0-0.4,0.2-0.3,0.4-0.3C28.5,68.7,28.8,68.7,29.1,68.7z"/>
		<path fill="#EDA9B1" d="M115.6,68.7c-0.7,0-1.3,0-2,0c0-0.1,0.1-0.2,0.1-0.2c0.6,0,1.2,0,1.8,0C115.6,68.6,115.6,68.7,115.6,68.7z
			"/>
		<path fill="#EDA9B1" d="M101.1,68.7c-0.4,0-0.9,0-1.3,0C100.2,68.4,100.7,68.4,101.1,68.7z"/>
		<path fill="#EDA9B1" d="M99.5,70.5c-0.3-0.3-0.3-0.6,0-0.9C99.5,69.9,99.5,70.2,99.5,70.5z"/>
		<path fill="#EDA9B1" d="M95.4,65.9c0.3,0,0.6,0,0.9,0C96,66.2,95.6,66.2,95.4,65.9z"/>
		<path fill="#EDA9B1" d="M96.5,65.6c0-0.3,0-0.6,0-0.9C96.8,65,96.8,65.4,96.5,65.6z"/>
		<path fill="#EDA9B1" d="M112.1,70.5c0.2,0,0.4,0,0.7,0C112.5,70.8,112.3,70.8,112.1,70.5z"/>
		<path fill="#EDA9B1" d="M112.1,69.8c0,0.2,0,0.4,0,0.7C111.8,70.3,111.8,70.1,112.1,69.8z"/>
		<path fill="#EDA9B1" d="M105.9,70.1c-0.3-0.2-0.3-0.4,0-0.7C105.9,69.6,105.9,69.8,105.9,70.1z"/>
		<path fill="#EDA9B1" d="M113.6,69.2c0.1-0.4,0.4-0.1,0.7-0.2C114.2,69.4,113.9,69.1,113.6,69.2z"/>
		<path fill="#EDA9B1" d="M105.9,69.4c0-0.3,0.3-0.2,0.4-0.2C106.4,69.5,106.1,69.4,105.9,69.4z"/>
		<path fill="#EDA9B1" d="M108.4,74c0.1-0.1,0.1-0.1,0.2-0.2C108.5,73.9,108.4,73.9,108.4,74z"/>
		<path fill="#FFFEFE" d="M61.9,143.4c0-0.4,0-0.9,0-1.3c0-0.6-0.2-1.1-0.7-1.6c-0.4-0.4-0.8-0.9-1.2-1.4c-0.4-0.5-0.7-1.1-0.6-1.8
			c0.1-0.6,0-1.2,0-1.9c0-0.6,0.1-1.1,0.2-1.7c0.1-0.6,0-1.1,0.2-1.7c0.2-0.6,0.3-1.3,0.2-2c0-0.7,0.3-1.2,0.2-1.9
			c0.3-0.2,0.2-0.6,0.2-0.9c0-0.2,0.1-0.3,0.2-0.4c0.1-0.2,0.3-0.2,0.4,0c0.3,0.8,0.6,1.5,0.9,2.3c0.2,0.6,0.4,1.3,0.7,1.9
			c0.6,1.4,1.2,2.8,1.7,4.2c0.1,0.2,0.1,0.4,0.2,0.6c0.2,0.2,0.3,0.3,0.1,0.6c-0.2,0.2-0.2,0.6,0.1,0.9c0.6,0.6,0.6,1.4,0.7,2.1
			c0.1,0.7,0,1.4,0,2.1c0.1,0.6-0.1,1-0.7,1.1c-0.5,0.2-0.8,0.5-1,1c-0.2,0.7-0.7,1-1.2,1.2c-0.2,0.1-0.3,0.2-0.5,0.3
			c-0.1,0-0.3-0.1-0.3-0.2C61.9,144.5,61.9,143.9,61.9,143.4z"/>
		<path fill="#FFFEFE" d="M63.6,59.7c0.1-0.9,0.1-1.8,0.3-2.6c0.2-0.7,0.5-1.4,1-1.9c0.2-0.2,0.4-0.2,0.6,0.1c0.3,0.5,0.7,1,0.9,1.6
			c0.4,0.8,0.8,1.4,1.4,2.1c1.1,1.2,2,2.6,2.4,4.2c0.4,1.3,0.9,2.6,1.4,3.8c0.5,1.3,1.2,2.5,1.8,3.8c0.1,0.1,0.1,0.2,0.1,0.4
			c-0.2,0-0.4,0.1-0.5,0.1c-0.9-0.6-1.8-0.9-2.6-1.7c-1-1-2.1-1.9-3.1-2.9c-0.1-0.1-0.3-0.2-0.4-0.3c-0.4-0.4-0.9-0.7-1.1-1.3
			c-0.4-0.7-0.7-1.5-1.3-2.1c-0.7-0.9-1-1.8-0.9-2.8C63.7,60,63.7,59.9,63.6,59.7C63.6,59.8,63.6,59.7,63.6,59.7z"/>
		<path fill="#C71B21" d="M43.2,76.5c0,0.3,0,0.7,0,1c0,0.1,0.1,0.2,0.2,0.3c0,0,0.1,0.1,0.2,0.1c0,0-0.1,0.1-0.1,0.1
			c-0.5,0-1,0-1.4,0c-0.1,0-0.3-0.1-0.4-0.1c0.1,0,0.2-0.1,0.4-0.1c0.3,0,0.3-0.1,0.3-0.3c0-0.4,0-0.9,0-1.3c0-1.2,0-2.4,0-3.6
			c0-0.3-0.1-0.5-0.4-0.7c-0.1,0-0.2-0.1-0.2-0.1c0.1,0,0.2,0,0.3-0.1c0.2-0.3,0.6-0.2,0.9-0.2c0.1,0,0.1,0.6,0.1,1
			c0,0.8,0,1.5,0,2.3c0,0.1,0.8,0.7,1,0.7c1,0.1,1.1,0,1.5-1c0.2-0.6,0.2-1.2,0.1-1.7c-0.1-0.5-0.6-1-1.3-1c-0.1,0-0.1-0.1-0.2-0.1
			c0.1,0,0.1-0.1,0.2-0.1c0.9-0.3,1.5,0.3,1.9,0.9c0.4,0.6,0.4,1.3,0.1,2.1c-0.2,0.6-0.7,0.9-1.2,1.2c-0.5,0.3-1.1,0.1-1.6-0.1
			c-0.2-0.1-0.3-0.4-0.3,0.1C43.2,75.9,43.2,76.2,43.2,76.5z"/>
		<path fill="#C71B21" d="M59.9,71.9c0,0.9,0,1.8,0,2.7c0,0.3,0.1,0.5,0.4,0.7c0.1,0,0.2,0.1,0.2,0.1c-0.1,0-0.1,0.1-0.2,0.1
			c-0.3,0-0.6,0-0.9,0c-0.1,0-0.2-0.1-0.2-0.1c0-0.2,0-0.4-0.3-0.1c-0.3,0.2-0.6,0.4-0.9,0.5c-0.5,0.1-1.1,0.1-1.4-0.5
			c-0.1-0.2-0.4-0.4-0.5-0.6c-0.3-0.3-0.4-0.7-0.4-1.2c0-0.4-0.1-0.8,0.3-1.1c0.2-0.1,0.2-0.4,0.4-0.6c0.3-0.4,0.7-0.6,1.2-0.5
			c0.4,0,0.9-0.1,1.2,0.3c0,0.1,0.2,0.1,0.2,0.1c0.1-0.1,0.2-0.2,0.2-0.3c0-0.6,0-1.2,0-1.8c0-0.2-0.1-0.3-0.2-0.5
			c-0.1-0.1-0.3-0.2-0.4-0.2c0.2-0.1,0.4-0.3,0.6-0.3c0.5-0.2,0.7,0,0.7,0.6c0,0.9,0,1.8-0.3,3.4c-0.3,0.6-0.3,0.3-0.3,0.1
			c0.1-0.6-0.1-0.9-0.8-1c-0.4-0.1-0.7-0.3-1.1,0c-0.4,0.3-0.9,0.6-0.8,1.2c0,0.4,0,0.7,0,1.1c0,0.4,0.1,0.6,0.4,0.9
			c0.4,0.5,1,0.4,1.5,0.3c0.2,0,0.5-0.2,0.7-0.5c0.1-0.2,0.1-0.5,0.1-0.7C59.3,73.9,59.2,73.7,59.9,71.9z"/>
		<path fill="#C71B21" d="M65,73.3c0,0.5,0,1,0,1.4c0,0.2,0.1,0.3,0.2,0.5c0.1,0.1,0.3,0.2,0.4,0.3c-0.2,0-0.4,0.1-0.5,0
			c-0.2-0.1-0.7,0.3-0.7-0.3c0,0-0.2,0-0.2,0c-0.2,0.1-0.4,0.3-0.6,0.4c-0.8,0.5-1.8-0.2-1.8-1.1c0-0.7,0-1.5,0-2.2
			c0-0.4,0-0.6-0.5-0.6c0,0-0.1-0.1-0.1-0.1c0,0,0-0.1,0.1-0.1c0.1,0,0.1,0,0.2,0c1,0,1,0,1,0.9c0,0.7,0,1.5,0,2.2
			c0,0.5,0.3,0.7,0.8,0.6c0.4-0.1,0.7-0.3,1-0.5c0.3-0.2,0.2-0.5,0.2-0.8c0-0.5,0-1,0-1.5c0-0.4,0.1-0.8-0.5-0.7
			c0,0-0.1-0.2-0.1-0.2c0-0.1,0.1-0.1,0.2-0.2c0.1,0,0.1,0,0.2,0c0.9,0,0.9,0,0.9,0.8C65,72.6,65,72.9,65,73.3z"/>
		<path fill="#C71B21" d="M55.1,73.4c0.2,1.1-1.2,2.4-2.2,2.4c-1.1-0.1-2.1-1.2-2.2-2.4c0-0.7,0.4-1.1,0.8-1.5
			c0.4-0.5,1-0.5,1.5-0.5c0.6,0,1.1,0.1,1.4,0.6C54.7,72.4,55.2,72.8,55.1,73.4z M54.2,73.5c0-0.3,0-0.5,0-0.8c0-0.4-0.6-1-0.9-1.1
			c-0.8-0.2-1.7,0.5-1.8,1.3c0,0.4,0,0.8,0,1.2c0,0.8,0.4,1.2,1.2,1.2c0.2,0,0.4,0,0.5,0c0.3,0,0.5-0.1,0.7-0.4
			C54.3,74.5,54.2,74,54.2,73.5z"/>
		<path fill="#C71B21" d="M37.4,73.7c0,0.4,0,0.8,0,1.2c0,0.1,0.1,0.3,0.1,0.4c0.2-0.1,0.3-0.1,0.5-0.2c0.1,0,0.1-0.1,0.2-0.1
			c0,0,0.1,0,0.1,0c0,0.1,0,0.2,0,0.2c-0.3,0.4-0.9,0.5-1.4,0.1c-0.3-0.2-0.4-0.3-0.7,0c-0.5,0.4-1.1,0.2-1.7,0.2
			c-0.1,0-0.4-0.3-0.4-0.4c0-0.4,0-0.8,0.3-1.2c0.5-0.6,1.2-0.6,1.8-1c0.3-0.2,0.4-1,0-1.2c-0.4-0.2-1-0.1-1.3,0.3
			c-0.1,0.2-0.2,0.3-0.4,0.5c-0.1,0.2-0.2,0.2-0.4,0c-0.1-0.2-0.2-0.3,0-0.5c0.4-0.5,0.8-0.8,1.5-0.7c0.4,0.1,0.8-0.2,1.1,0.2
			c0.4,0.4,0.7,0.7,0.6,1.3C37.4,73.1,37.4,73.4,37.4,73.7z M36.8,74.1c0-0.4,0-0.6,0-0.8c0-0.1-0.2-0.2-0.2-0.2
			c-0.7,0.3-1.4,0.6-1.8,1.3c-0.2,0.3,0.4,1,0.7,0.9c0.4-0.2,0.8-0.4,1.1-0.7C36.8,74.5,36.8,74.1,36.8,74.1z"/>
		<path fill="#C71B21" d="M72.8,71.4c0.6-0.1,1,0.1,1.2,0.6c0.1,0.2,0.2,0.3,0.3,0.4c0.1,0.1,0.1,0.2,0.1,0.4
			c-0.1,0-0.2,0.1-0.3,0.1c-0.7,0-1.5,0-2.2,0c-0.3,0-0.4,0.1-0.4,0.4c0,0.3-0.1,0.5,0,0.8c0.1,0.4,0.4,0.9,0.6,1.3
			c0.6-0.1,1.3,0.3,1.7-0.4c0.1-0.1,0.2-0.2,0.3-0.3c0,0,0.1,0,0.2,0c0,0,0,0.1,0,0.1c-0.4,0.4-0.8,0.9-1.5,1
			c-1.4,0.2-2.7-1.2-2.2-2.8c0.1-0.5,0.3-1,0.8-1.3C72,71.4,72.4,71.4,72.8,71.4z M72.6,72.7c0.2,0,0.4,0,0.7,0
			c0.3,0,0.5-0.3,0.3-0.5c-0.2-0.3-0.4-0.6-0.9-0.6c-0.5,0-0.8,0.2-1,0.6c-0.1,0.2,0.1,0.5,0.3,0.5C72.1,72.7,72.4,72.7,72.6,72.7z"
			/>
		<path fill="#C71B21" d="M67.2,73.3c0,0.4,0,0.8,0.2,1.3c0.6,1.1,1.6,1.1,2.3,0.1c0.1-0.1,0.2-0.1,0.2-0.2c0,0.1,0.1,0.3,0.1,0.4
			c0,0.1-0.1,0.3-0.2,0.4c-0.5,0.5-1.5,0.7-2.2,0.5c-0.7-0.3-1.3-1.1-1.4-1.8c-0.1-0.8,0.1-1.6,0.8-2.1c0.6-0.4,1.3-0.6,2-0.4
			c0.3,0.1,0.6,0.5,0.9,0.7c0,0-0.1,0.2-0.2,0.2c-0.3,0.2-0.5,0.2-0.7-0.3c-0.1-0.2-0.2-0.4-0.4-0.4c-0.7-0.2-1.6,0.4-1.6,1.2
			C67.2,72.9,67.2,73.1,67.2,73.3z"/>
		<path fill="#FFFEFE" d="M29.7,69.2c0.4,0,0.9,0,1.3,0c0.2,0.2,0.6,0.4,0.6,0.6c0.1,0.5,0,1-0.1,1.6c0,0.1-0.2,0.2-0.3,0.2
			c-0.2,0-0.4-0.1-0.4,0.2c-0.4,0-0.8,0.1-1-0.1c-0.2-0.2-0.1-0.7-0.1-1C29.7,70.2,29.7,69.7,29.7,69.2z"/>
		<path fill="#C71B21" d="M75.8,73.5c0-0.4,0-0.7,0-1.1c0-0.1,0-0.3-0.1-0.4c-0.1-0.2-0.3-0.3-0.5-0.4c0.2,0,0.4,0,0.6-0.1
			c0.1,0,0.2-0.2,0.4-0.2c0.1,0,0.2,0.1,0.3,0.2c0.1,0.4,0.2,0.4,0.4,0.1c0.3-0.5,0.7-0.4,1.2-0.4c0.3,0,0.5,0.4,0.4,0.7
			c-0.1,0.2-0.4,0.3-0.5,0.2c-0.1-0.1-0.2-0.3-0.4-0.4c-0.1-0.1-0.3-0.1-0.4,0c-0.4,0.4-0.7,0.8-0.7,1.3c0,0.5,0,1,0,1.4
			c0,0.3,0.1,0.5,0.4,0.7c0.1,0,0.2,0.1,0.2,0.1c-0.1,0-0.2,0.1-0.3,0.1c-0.4,0-0.7,0-1.1,0c-0.2,0-0.4,0-0.5-0.1
			c0.1-0.1,0.3-0.2,0.4-0.3c0.1-0.1,0.2-0.3,0.2-0.5C75.8,74.3,75.8,73.9,75.8,73.5z"/>
		<path fill="#C71B21" d="M48.7,73.9c0,0.4,0,0.7,0,1.1c0,0.3,0.1,0.4,0.4,0.4c0.1,0,0.2,0.1,0.3,0.1c-0.1,0-0.2,0.1-0.3,0.1
			c-0.5,0-1.1,0-1.6,0c-0.1,0-0.2-0.1-0.3-0.1c0.1,0,0.2-0.1,0.3-0.1c0.2-0.1,0.4-0.3,0.4-0.6c0-0.8,0-1.6,0-2.4
			c0-0.1-0.1-0.3-0.2-0.4c-0.1-0.1-0.3-0.2-0.4-0.3c0.2,0,0.4,0,0.5-0.1c0.2,0,0.3-0.2,0.5-0.2c0.1,0,0.3,0.1,0.3,0.2
			c0.1,0.4,0.2,0.7,0.2,1.1C48.7,73.1,48.7,73.5,48.7,73.9z"/>
		<path fill="#C71B21" d="M39.9,73.8c-0.3,0-0.7,0-1,0c-0.1,0-0.2-0.2-0.2-0.3c0-0.1,0.1-0.3,0.2-0.3c0.7,0,1.4,0,2.1,0
			c0.1,0,0.2,0.2,0.2,0.3c0,0.1-0.1,0.3-0.2,0.3C40.7,73.8,40.3,73.8,39.9,73.8z"/>
		<path fill="#C71B21" d="M79.1,75.2c-0.1,0.2,0.2,0.5-0.2,0.6c-0.3,0-0.8-0.4-0.8-0.6c0-0.3,0.3-0.5,0.6-0.5
			C79.2,74.6,79.1,74.9,79.1,75.2z"/>
		<path fill="#C71B21" d="M50.6,72.1c-0.3,0.1-0.5,0.2-0.5,0.1c-0.3-0.2-0.4-0.5-0.8-0.4c0-0.1,0-0.2,0-0.2c0.2-0.4,0.6-0.3,0.9-0.2
			C50.3,71.5,50.4,71.8,50.6,72.1z"/>
		<path fill="#EDA9B1" d="M87.5,71.2c-0.5,0-1,0-1.4,0c-0.5,0-0.5,0-0.3-0.5c0.2-0.3,0.3-0.7,0.3-1.1c0-0.3,0.4-0.5,0.5-0.8
			c0.2-0.7,0.6-1.4,0.8-2.1c0.1-0.2,0.2-0.2,0.3,0c0.1,0.2,0.4,0.4,0.4,0.6c0,0.7,0.5,1.1,0.7,1.7c0.2,0.6,0.3,1.1,0.6,1.6
			c0.2,0.3,0,0.6-0.4,0.6C88.5,71.2,88,71.2,87.5,71.2z"/>
		<path fill="#FFFEFE" d="M113.2,73.6c0-0.7,0.6-0.9,0.9-1.2c0.4-0.3,0.9-0.5,1.4-0.7c0.3-0.1,0.5,0.1,0.5,0.3c0,0.7,0,1.4,0,2.1
			c-0.9,0-1.7,0-2.6,0C113.1,74,113.2,73.8,113.2,73.6z"/>
		<path fill="#EDA9B1" d="M113.2,73.6c0,0.2-0.1,0.4,0.3,0.4c0.9,0,1.7,0,2.6,0c-0.4,0.7-1.2,0.8-1.9,1.1c-0.4,0.1-0.8-0.1-1-0.4
			C113,74.4,112.7,74,113.2,73.6z"/>
		<path fill="#EDA9B1" d="M29.7,73.5c0-0.2,0-0.4,0-0.5c0-0.3,0.1-0.6,0.1-0.9c0.5,0.1,0.9-0.1,1.4,0.2c1,0.6,1.1,1.3,0.7,2.4
			c-0.1,0.3-0.3,0.4-0.6,0.5c-0.3,0-0.6,0.2-0.9,0.2c-0.4,0-0.7-0.2-0.7-0.6C29.7,74.3,29.7,73.9,29.7,73.5z"/>
		<path fill="#EDA9B1" d="M59.2,73.5c0,0.2,0,0.4,0,0.7c0,0.2,0,0.5-0.1,0.7c-0.1,0.2-0.4,0.4-0.7,0.5c-0.5,0-1.1,0.2-1.5-0.3
			c-0.2-0.3-0.4-0.5-0.4-0.9c0-0.4,0-0.7,0-1.1c0-0.6,0.4-0.9,0.8-1.2c0.3-0.2,0.7-0.1,1.1,0c0.6,0.2,0.8,0.5,0.8,1
			C59.2,73,59.2,73.3,59.2,73.5z"/>
		<path fill="#EDA9B1" d="M54.2,73.5c0,0.5,0.1,1-0.2,1.4c-0.2,0.3-0.3,0.4-0.7,0.4c-0.2,0-0.4,0-0.5,0c-0.8,0-1.2-0.4-1.2-1.2
			c0-0.4,0-0.8,0-1.2c0-0.9,0.9-1.5,1.8-1.3c0.3,0.1,0.9,0.8,0.9,1.1C54.2,73,54.2,73.2,54.2,73.5z"/>
		<path fill="#EDA9B1" d="M36.8,74.1c0,0.1,0,0.4-0.1,0.6c-0.3,0.3-0.7,0.5-1.1,0.7c-0.3,0.1-0.8-0.7-0.7-0.9c0.4-0.7,1.1-1,1.8-1.3
			c0,0,0.2,0.1,0.2,0.2C36.8,73.5,36.8,73.7,36.8,74.1z"/>
		<path fill="#EDA9B1" d="M72.6,72.7c-0.2,0-0.4,0-0.7,0c-0.3,0-0.5-0.3-0.3-0.5c0.2-0.4,0.5-0.6,1-0.6c0.5,0,0.7,0.3,0.9,0.6
			c0.1,0.2-0.1,0.5-0.3,0.5C73,72.7,72.8,72.7,72.6,72.7z"/>
	</g>
</g>
</svg>
